<svg width="383" height="70" viewBox="0 0 383 70" fill="none" xmlns="http://www.w3.org/2000/svg">
<rect width="383" height="70" rx="10" fill="#00A3FF"/>
<g clip-path="url(#clip0_671_7670)">
<path fill-rule="evenodd" clip-rule="evenodd" d="M65.3193 20.5913C62.4195 21.4348 59.8414 23.1333 57.922 25.4649C56.0025 27.7964 54.8308 30.6527 54.5601 33.6606H61.4172C61.8147 29.0836 63.1418 24.6357 65.3172 20.5892L65.3193 20.5913ZM61.4172 36.3392H54.5601C54.8303 39.3472 56.0014 42.2037 57.9205 44.5357C59.8396 46.8676 62.4174 48.5666 65.3172 49.4106C63.1418 45.364 61.8147 40.9162 61.4172 36.3392ZM68.7543 49.9827C66.1546 45.8631 64.5616 41.189 64.1043 36.3392H74.8936C74.4363 41.189 72.8434 45.8631 70.2436 49.9827C69.7475 50.0068 69.2505 50.0068 68.7543 49.9827ZM73.6829 49.4085C76.5824 48.5646 79.16 46.866 81.079 44.5344C82.9981 42.2029 84.1694 39.3468 84.4401 36.3392H77.5829C77.1854 40.9162 75.8583 45.364 73.6829 49.4106V49.4085ZM77.5829 33.6606H84.4401C84.1698 30.6526 82.9987 27.7961 81.0796 25.4641C79.1605 23.1321 76.5827 21.4332 73.6829 20.5892C75.8584 24.6357 77.1855 29.0836 77.5829 33.6606ZM68.7543 20.017C69.2512 19.9927 69.7489 19.9927 70.2458 20.017C72.8447 24.1369 74.437 28.8109 74.8936 33.6606H64.1065C64.5715 28.7813 66.1679 24.1035 68.7543 20.017Z" fill="white"/>
</g>
<path d="M107.591 32.1875C107.472 31.7727 107.304 31.4062 107.088 31.0881C106.872 30.7642 106.608 30.4915 106.295 30.2699C105.989 30.0426 105.636 29.8693 105.239 29.75C104.847 29.6307 104.412 29.571 103.935 29.571C103.043 29.571 102.259 29.7926 101.582 30.2358C100.912 30.679 100.389 31.3239 100.014 32.1705C99.6392 33.0114 99.4517 34.0398 99.4517 35.2557C99.4517 36.4716 99.6364 37.5057 100.006 38.358C100.375 39.2102 100.898 39.8608 101.574 40.3097C102.25 40.7528 103.048 40.9744 103.969 40.9744C104.804 40.9744 105.517 40.8267 106.108 40.5312C106.705 40.2301 107.159 39.8068 107.472 39.2614C107.79 38.7159 107.949 38.071 107.949 37.3267L108.699 37.4375H104.199V34.6591H111.503V36.858C111.503 38.392 111.179 39.7102 110.531 40.8125C109.884 41.9091 108.991 42.7557 107.855 43.3523C106.719 43.9432 105.418 44.2386 103.952 44.2386C102.315 44.2386 100.878 43.8778 99.6392 43.1562C98.4006 42.429 97.4347 41.3977 96.7415 40.0625C96.054 38.7216 95.7102 37.1307 95.7102 35.2898C95.7102 33.875 95.9148 32.6136 96.3239 31.5057C96.7386 30.392 97.3182 29.4489 98.0625 28.6761C98.8068 27.9034 99.6733 27.3153 100.662 26.9119C101.651 26.5085 102.722 26.3068 103.875 26.3068C104.864 26.3068 105.784 26.4517 106.636 26.7415C107.489 27.0256 108.244 27.429 108.903 27.9517C109.568 28.4744 110.111 29.0966 110.531 29.8182C110.952 30.5341 111.222 31.3239 111.341 32.1875H107.591ZM120.121 44.2557C118.798 44.2557 117.653 43.9744 116.687 43.4119C115.727 42.8437 114.985 42.054 114.462 41.0426C113.94 40.0256 113.678 38.8466 113.678 37.5057C113.678 36.1534 113.94 34.9716 114.462 33.9602C114.985 32.9432 115.727 32.1534 116.687 31.5909C117.653 31.0227 118.798 30.7386 120.121 30.7386C121.445 30.7386 122.587 31.0227 123.548 31.5909C124.513 32.1534 125.258 32.9432 125.781 33.9602C126.303 34.9716 126.565 36.1534 126.565 37.5057C126.565 38.8466 126.303 40.0256 125.781 41.0426C125.258 42.054 124.513 42.8437 123.548 43.4119C122.587 43.9744 121.445 44.2557 120.121 44.2557ZM120.138 41.4432C120.741 41.4432 121.244 41.2727 121.647 40.9318C122.05 40.5852 122.354 40.1136 122.559 39.517C122.769 38.9205 122.874 38.2415 122.874 37.4801C122.874 36.7188 122.769 36.0398 122.559 35.4432C122.354 34.8466 122.05 34.375 121.647 34.0284C121.244 33.6818 120.741 33.5085 120.138 33.5085C119.531 33.5085 119.019 33.6818 118.604 34.0284C118.195 34.375 117.886 34.8466 117.675 35.4432C117.471 36.0398 117.369 36.7188 117.369 37.4801C117.369 38.2415 117.471 38.9205 117.675 39.517C117.886 40.1136 118.195 40.5852 118.604 40.9318C119.019 41.2727 119.531 41.4432 120.138 41.4432ZM141.443 30.9091V33.6364H133.56V30.9091H141.443ZM135.349 27.7727H138.98V39.9773C138.98 40.3125 139.031 40.5739 139.134 40.7614C139.236 40.9432 139.378 41.071 139.56 41.1449C139.747 41.2187 139.963 41.2557 140.207 41.2557C140.378 41.2557 140.548 41.2415 140.719 41.2131C140.889 41.179 141.02 41.1534 141.111 41.1364L141.682 43.8381C141.5 43.8949 141.244 43.9602 140.915 44.0341C140.585 44.1136 140.185 44.1619 139.713 44.179C138.838 44.2131 138.071 44.0966 137.412 43.8295C136.759 43.5625 136.25 43.1477 135.886 42.5852C135.523 42.0227 135.344 41.3125 135.349 40.4545V27.7727ZM149.582 44.2557C148.259 44.2557 147.114 43.9744 146.148 43.4119C145.188 42.8437 144.446 42.054 143.923 41.0426C143.401 40.0256 143.139 38.8466 143.139 37.5057C143.139 36.1534 143.401 34.9716 143.923 33.9602C144.446 32.9432 145.188 32.1534 146.148 31.5909C147.114 31.0227 148.259 30.7386 149.582 30.7386C150.906 30.7386 152.048 31.0227 153.009 31.5909C153.974 32.1534 154.719 32.9432 155.241 33.9602C155.764 34.9716 156.026 36.1534 156.026 37.5057C156.026 38.8466 155.764 40.0256 155.241 41.0426C154.719 42.054 153.974 42.8437 153.009 43.4119C152.048 43.9744 150.906 44.2557 149.582 44.2557ZM149.599 41.4432C150.202 41.4432 150.705 41.2727 151.108 40.9318C151.511 40.5852 151.815 40.1136 152.02 39.517C152.23 38.9205 152.335 38.2415 152.335 37.4801C152.335 36.7188 152.23 36.0398 152.02 35.4432C151.815 34.8466 151.511 34.375 151.108 34.0284C150.705 33.6818 150.202 33.5085 149.599 33.5085C148.991 33.5085 148.48 33.6818 148.065 34.0284C147.656 34.375 147.347 34.8466 147.136 35.4432C146.932 36.0398 146.83 36.7188 146.83 37.4801C146.83 38.2415 146.932 38.9205 147.136 39.517C147.347 40.1136 147.656 40.5852 148.065 40.9318C148.48 41.2727 148.991 41.4432 149.599 41.4432ZM167.7 26.5455V44H164.009V26.5455H167.7ZM174.298 36.4318V44H170.668V30.9091H174.128V33.2188H174.281C174.571 32.4574 175.057 31.8551 175.739 31.4119C176.42 30.9631 177.247 30.7386 178.219 30.7386C179.128 30.7386 179.92 30.9375 180.597 31.3352C181.273 31.733 181.798 32.3011 182.173 33.0398C182.548 33.7727 182.736 34.6477 182.736 35.6648V44H179.105V36.3125C179.111 35.5114 178.906 34.8864 178.491 34.4375C178.077 33.983 177.506 33.7557 176.778 33.7557C176.29 33.7557 175.858 33.8608 175.483 34.071C175.114 34.2812 174.824 34.5881 174.614 34.9915C174.409 35.3892 174.304 35.8693 174.298 36.4318ZM188.887 40.233L188.896 35.8778H189.424L193.617 30.9091H197.785L192.151 37.4886H191.29L188.887 40.233ZM185.597 44V26.5455H189.228V44H185.597ZM193.779 44L189.927 38.2983L192.347 35.733L198.032 44H193.779ZM210.458 34.642L207.134 34.8466C207.077 34.5625 206.955 34.3068 206.768 34.0795C206.58 33.8466 206.333 33.6619 206.026 33.5256C205.725 33.3835 205.364 33.3125 204.944 33.3125C204.381 33.3125 203.907 33.4318 203.521 33.6705C203.134 33.9034 202.941 34.2159 202.941 34.608C202.941 34.9205 203.066 35.1847 203.316 35.4006C203.566 35.6165 203.995 35.7898 204.603 35.9205L206.972 36.3977C208.245 36.6591 209.194 37.0795 209.819 37.6591C210.444 38.2386 210.756 39 210.756 39.9432C210.756 40.8011 210.504 41.554 209.998 42.2017C209.498 42.8494 208.81 43.3551 207.935 43.7188C207.066 44.0767 206.063 44.2557 204.927 44.2557C203.194 44.2557 201.813 43.8949 200.785 43.1733C199.762 42.446 199.163 41.4574 198.987 40.2074L202.558 40.0199C202.665 40.5483 202.927 40.9517 203.342 41.2301C203.756 41.5028 204.288 41.6392 204.935 41.6392C205.572 41.6392 206.083 41.517 206.469 41.2727C206.862 41.0227 207.06 40.7017 207.066 40.3097C207.06 39.9801 206.921 39.7102 206.648 39.5C206.376 39.2841 205.955 39.1193 205.387 39.0057L203.12 38.554C201.842 38.2983 200.89 37.8551 200.265 37.2244C199.646 36.5937 199.336 35.7898 199.336 34.8125C199.336 33.9716 199.563 33.2472 200.018 32.6392C200.478 32.0312 201.123 31.5625 201.952 31.233C202.788 30.9034 203.765 30.7386 204.884 30.7386C206.538 30.7386 207.839 31.0881 208.788 31.7869C209.742 32.4858 210.299 33.4375 210.458 34.642ZM215.284 48.9091C214.824 48.9091 214.392 48.8722 213.989 48.7983C213.591 48.7301 213.261 48.642 213 48.5341L213.818 45.8239C214.244 45.9545 214.628 46.0256 214.969 46.0369C215.315 46.0483 215.614 45.9688 215.864 45.7983C216.119 45.6278 216.327 45.3381 216.486 44.929L216.699 44.375L212.003 30.9091H215.821L218.531 40.5227H218.668L221.403 30.9091H225.247L220.159 45.4148C219.915 46.1193 219.582 46.733 219.162 47.2557C218.747 47.7841 218.222 48.1903 217.585 48.4744C216.949 48.7642 216.182 48.9091 215.284 48.9091ZM236.657 44L231.663 26.5455H235.694L238.583 38.6733H238.728L241.915 26.5455H245.367L248.546 38.6989H248.7L251.589 26.5455H255.62L250.626 44H247.029L243.705 32.5881H243.569L240.254 44H236.657ZM262.087 44.2557C260.74 44.2557 259.581 43.983 258.609 43.4375C257.643 42.8864 256.899 42.108 256.376 41.1023C255.854 40.0909 255.592 38.8949 255.592 37.5142C255.592 36.1676 255.854 34.9858 256.376 33.9688C256.899 32.9517 257.635 32.1591 258.584 31.5909C259.538 31.0227 260.658 30.7386 261.942 30.7386C262.805 30.7386 263.609 30.8778 264.354 31.1562C265.104 31.429 265.757 31.8409 266.314 32.392C266.876 32.9432 267.314 33.6364 267.626 34.4716C267.939 35.3011 268.095 36.2727 268.095 37.3864V38.3835H257.041V36.1335H264.678C264.678 35.6108 264.564 35.1477 264.337 34.7443C264.109 34.3409 263.794 34.0256 263.391 33.7983C262.993 33.5653 262.53 33.4489 262.001 33.4489C261.45 33.4489 260.962 33.5767 260.536 33.8324C260.115 34.0824 259.786 34.4205 259.547 34.8466C259.308 35.267 259.186 35.7358 259.18 36.2528V38.392C259.18 39.0398 259.3 39.5994 259.538 40.071C259.783 40.5426 260.126 40.9062 260.57 41.1619C261.013 41.4176 261.538 41.5455 262.146 41.5455C262.55 41.5455 262.919 41.4886 263.254 41.375C263.589 41.2614 263.876 41.0909 264.115 40.8636C264.354 40.6364 264.536 40.358 264.661 40.0284L268.018 40.25C267.848 41.0568 267.499 41.7614 266.97 42.3636C266.447 42.9602 265.771 43.4261 264.942 43.7614C264.118 44.0909 263.166 44.2557 262.087 44.2557ZM270.533 44V26.5455H274.163V33.108H274.274C274.433 32.7557 274.663 32.3977 274.964 32.0341C275.271 31.6648 275.669 31.358 276.158 31.1136C276.652 30.8636 277.266 30.7386 277.999 30.7386C278.953 30.7386 279.834 30.9886 280.641 31.4886C281.447 31.983 282.092 32.7301 282.575 33.7301C283.058 34.7244 283.3 35.9716 283.3 37.4716C283.3 38.9318 283.064 40.1648 282.592 41.1705C282.126 42.1705 281.49 42.929 280.683 43.446C279.882 43.9574 278.984 44.2131 277.99 44.2131C277.286 44.2131 276.686 44.0966 276.192 43.8636C275.703 43.6307 275.303 43.3381 274.99 42.9858C274.678 42.6278 274.439 42.267 274.274 41.9034H274.112V44H270.533ZM274.087 37.4545C274.087 38.233 274.195 38.9119 274.411 39.4915C274.626 40.071 274.939 40.5227 275.348 40.8466C275.757 41.1648 276.254 41.3239 276.839 41.3239C277.43 41.3239 277.93 41.1619 278.339 40.8381C278.749 40.5085 279.058 40.054 279.268 39.4744C279.484 38.8892 279.592 38.2159 279.592 37.4545C279.592 36.6989 279.487 36.0341 279.277 35.4602C279.067 34.8864 278.757 34.4375 278.348 34.1136C277.939 33.7898 277.436 33.6278 276.839 33.6278C276.249 33.6278 275.749 33.7841 275.339 34.0966C274.936 34.4091 274.626 34.8523 274.411 35.4261C274.195 36 274.087 36.6761 274.087 37.4545ZM296.614 34.642L293.29 34.8466C293.234 34.5625 293.112 34.3068 292.924 34.0795C292.737 33.8466 292.489 33.6619 292.183 33.5256C291.881 33.3835 291.521 33.3125 291.1 33.3125C290.538 33.3125 290.063 33.4318 289.677 33.6705C289.29 33.9034 289.097 34.2159 289.097 34.608C289.097 34.9205 289.222 35.1847 289.472 35.4006C289.722 35.6165 290.151 35.7898 290.759 35.9205L293.129 36.3977C294.401 36.6591 295.35 37.0795 295.975 37.6591C296.6 38.2386 296.913 39 296.913 39.9432C296.913 40.8011 296.66 41.554 296.154 42.2017C295.654 42.8494 294.967 43.3551 294.092 43.7188C293.222 44.0767 292.219 44.2557 291.083 44.2557C289.35 44.2557 287.969 43.8949 286.941 43.1733C285.918 42.446 285.319 41.4574 285.143 40.2074L288.714 40.0199C288.822 40.5483 289.083 40.9517 289.498 41.2301C289.913 41.5028 290.444 41.6392 291.092 41.6392C291.728 41.6392 292.239 41.517 292.626 41.2727C293.018 41.0227 293.217 40.7017 293.222 40.3097C293.217 39.9801 293.077 39.7102 292.805 39.5C292.532 39.2841 292.112 39.1193 291.543 39.0057L289.276 38.554C287.998 38.2983 287.046 37.8551 286.421 37.2244C285.802 36.5937 285.492 35.7898 285.492 34.8125C285.492 33.9716 285.719 33.2472 286.174 32.6392C286.634 32.0312 287.279 31.5625 288.109 31.233C288.944 30.9034 289.921 30.7386 291.04 30.7386C292.694 30.7386 293.995 31.0881 294.944 31.7869C295.898 32.4858 296.455 33.4375 296.614 34.642ZM299.199 44V30.9091H302.83V44H299.199ZM301.023 29.2216C300.483 29.2216 300.02 29.0426 299.634 28.6847C299.253 28.321 299.062 27.8864 299.062 27.3807C299.062 26.8807 299.253 26.4517 299.634 26.0938C300.02 25.7301 300.483 25.5483 301.023 25.5483C301.563 25.5483 302.023 25.7301 302.403 26.0938C302.79 26.4517 302.983 26.8807 302.983 27.3807C302.983 27.8864 302.79 28.321 302.403 28.6847C302.023 29.0426 301.563 29.2216 301.023 29.2216ZM312.701 30.9091V33.6364H304.817V30.9091H312.701ZM306.607 27.7727H310.238V39.9773C310.238 40.3125 310.289 40.5739 310.391 40.7614C310.494 40.9432 310.636 41.071 310.817 41.1449C311.005 41.2187 311.221 41.2557 311.465 41.2557C311.636 41.2557 311.806 41.2415 311.977 41.2131C312.147 41.179 312.278 41.1534 312.369 41.1364L312.94 43.8381C312.758 43.8949 312.502 43.9602 312.173 44.0341C311.843 44.1136 311.442 44.1619 310.971 44.179C310.096 44.2131 309.329 44.0966 308.67 43.8295C308.016 43.5625 307.508 43.1477 307.144 42.5852C306.781 42.0227 306.602 41.3125 306.607 40.4545V27.7727ZM320.891 44.2557C319.545 44.2557 318.386 43.983 317.414 43.4375C316.448 42.8864 315.704 42.108 315.181 41.1023C314.658 40.0909 314.397 38.8949 314.397 37.5142C314.397 36.1676 314.658 34.9858 315.181 33.9688C315.704 32.9517 316.44 32.1591 317.388 31.5909C318.343 31.0227 319.462 30.7386 320.746 30.7386C321.61 30.7386 322.414 30.8778 323.158 31.1562C323.908 31.429 324.562 31.8409 325.119 32.392C325.681 32.9432 326.119 33.6364 326.431 34.4716C326.744 35.3011 326.9 36.2727 326.9 37.3864V38.3835H315.846V36.1335H323.482C323.482 35.6108 323.369 35.1477 323.141 34.7443C322.914 34.3409 322.599 34.0256 322.195 33.7983C321.798 33.5653 321.335 33.4489 320.806 33.4489C320.255 33.4489 319.766 33.5767 319.34 33.8324C318.92 34.0824 318.59 34.4205 318.352 34.8466C318.113 35.267 317.991 35.7358 317.985 36.2528V38.392C317.985 39.0398 318.104 39.5994 318.343 40.071C318.587 40.5426 318.931 40.9062 319.374 41.1619C319.817 41.4176 320.343 41.5455 320.951 41.5455C321.354 41.5455 321.724 41.4886 322.059 41.375C322.394 41.2614 322.681 41.0909 322.92 40.8636C323.158 40.6364 323.34 40.358 323.465 40.0284L326.823 40.25C326.653 41.0568 326.303 41.7614 325.775 42.3636C325.252 42.9602 324.576 43.4261 323.746 43.7614C322.923 44.0909 321.971 44.2557 320.891 44.2557Z" fill="white"/>
<defs>
<clipPath id="clip0_671_7670">
<rect width="30" height="30" fill="white" transform="translate(54.5 20)"/>
</clipPath>
</defs>
</svg>
