<svg width="387" height="76" viewBox="0 0 387 76" fill="none" xmlns="http://www.w3.org/2000/svg">
<rect x="1" y="1" width="385" height="74" rx="11" fill="#213678"/>
<rect x="1" y="1" width="385" height="74" rx="11" stroke="white" stroke-width="2"/>
<g clip-path="url(#clip0_671_7664)">
<path d="M85.3641 22.016C85.2961 21.94 82.8461 22.046 80.7141 24.36C78.5821 26.672 78.9101 29.324 78.9581 29.392C79.0061 29.46 81.9981 29.566 83.9081 26.876C85.8181 24.186 85.4321 22.094 85.3641 22.016ZM91.9921 45.482C91.8961 45.29 87.3421 43.014 87.7661 38.638C88.1901 34.26 91.1161 33.06 91.1621 32.93C91.2081 32.8 89.9681 31.35 88.6541 30.616C87.6893 30.0985 86.6216 29.802 85.5281 29.748C85.3121 29.742 84.5621 29.558 83.0201 29.98C82.0041 30.258 79.7141 31.158 79.0841 31.194C78.4521 31.23 76.5721 30.15 74.5501 29.864C73.2561 29.614 71.8841 30.126 70.9021 30.52C69.9221 30.912 68.0581 32.028 66.7541 34.994C65.4501 37.958 66.1321 42.654 66.6201 44.114C67.1081 45.572 67.8701 47.962 69.1661 49.706C70.3181 51.674 71.8461 53.04 72.4841 53.504C73.1221 53.968 74.9221 54.276 76.1701 53.638C77.1741 53.022 78.9861 52.668 79.7021 52.694C80.4161 52.72 81.8241 53.002 83.2661 53.772C84.4081 54.166 85.4881 54.002 86.5701 53.562C87.6521 53.12 89.2181 51.444 91.0461 48.046C91.7401 46.466 92.0561 45.612 91.9921 45.482Z" fill="white"/>
<path d="M85.3641 22.016C85.2961 21.94 82.8461 22.046 80.7141 24.36C78.5821 26.672 78.9101 29.324 78.9581 29.392C79.0061 29.46 81.9981 29.566 83.9081 26.876C85.8181 24.186 85.4321 22.094 85.3641 22.016ZM91.9921 45.482C91.8961 45.29 87.3421 43.014 87.7661 38.638C88.1901 34.26 91.1161 33.06 91.1621 32.93C91.2081 32.8 89.9681 31.35 88.6541 30.616C87.6893 30.0985 86.6216 29.802 85.5281 29.748C85.3121 29.742 84.5621 29.558 83.0201 29.98C82.0041 30.258 79.7141 31.158 79.0841 31.194C78.4521 31.23 76.5721 30.15 74.5501 29.864C73.2561 29.614 71.8841 30.126 70.9021 30.52C69.9221 30.912 68.0581 32.028 66.7541 34.994C65.4501 37.958 66.1321 42.654 66.6201 44.114C67.1081 45.572 67.8701 47.962 69.1661 49.706C70.3181 51.674 71.8461 53.04 72.4841 53.504C73.1221 53.968 74.9221 54.276 76.1701 53.638C77.1741 53.022 78.9861 52.668 79.7021 52.694C80.4161 52.72 81.8241 53.002 83.2661 53.772C84.4081 54.166 85.4881 54.002 86.5701 53.562C87.6521 53.12 89.2181 51.444 91.0461 48.046C91.7401 46.466 92.0561 45.612 91.9921 45.482Z" fill="white"/>
</g>
<path d="M112.705 47H106.517V29.5455H112.756C114.511 29.5455 116.023 29.8949 117.29 30.5938C118.557 31.2869 119.531 32.2841 120.213 33.5852C120.901 34.8864 121.244 36.4432 121.244 38.2557C121.244 40.0739 120.901 41.6364 120.213 42.9432C119.531 44.25 118.551 45.2528 117.273 45.9517C116 46.6506 114.477 47 112.705 47ZM110.207 43.8381H112.551C113.642 43.8381 114.56 43.6449 115.304 43.2585C116.054 42.8665 116.616 42.2614 116.991 41.4432C117.372 40.6193 117.562 39.5568 117.562 38.2557C117.562 36.9659 117.372 35.9119 116.991 35.0938C116.616 34.2756 116.057 33.6733 115.312 33.2869C114.568 32.9006 113.651 32.7074 112.56 32.7074H110.207V43.8381ZM129.825 47.2557C128.501 47.2557 127.356 46.9744 126.39 46.4119C125.43 45.8437 124.688 45.054 124.165 44.0426C123.643 43.0256 123.381 41.8466 123.381 40.5057C123.381 39.1534 123.643 37.9716 124.165 36.9602C124.688 35.9432 125.43 35.1534 126.39 34.5909C127.356 34.0227 128.501 33.7386 129.825 33.7386C131.148 33.7386 132.29 34.0227 133.251 34.5909C134.217 35.1534 134.961 35.9432 135.484 36.9602C136.006 37.9716 136.268 39.1534 136.268 40.5057C136.268 41.8466 136.006 43.0256 135.484 44.0426C134.961 45.054 134.217 45.8437 133.251 46.4119C132.29 46.9744 131.148 47.2557 129.825 47.2557ZM129.842 44.4432C130.444 44.4432 130.947 44.2727 131.35 43.9318C131.754 43.5852 132.058 43.1136 132.262 42.517C132.472 41.9205 132.577 41.2415 132.577 40.4801C132.577 39.7188 132.472 39.0398 132.262 38.4432C132.058 37.8466 131.754 37.375 131.35 37.0284C130.947 36.6818 130.444 36.5085 129.842 36.5085C129.234 36.5085 128.722 36.6818 128.308 37.0284C127.898 37.375 127.589 37.8466 127.379 38.4432C127.174 39.0398 127.072 39.7188 127.072 40.4801C127.072 41.2415 127.174 41.9205 127.379 42.517C127.589 43.1136 127.898 43.5852 128.308 43.9318C128.722 44.2727 129.234 44.4432 129.842 44.4432ZM140.883 47L137.32 33.9091H140.994L143.022 42.7045H143.141L145.255 33.9091H148.86L151.008 42.6534H151.119L153.113 33.9091H156.778L153.224 47H149.38L147.13 38.767H146.968L144.718 47H140.883ZM162.345 39.4318V47H158.714V33.9091H162.175V36.2188H162.328C162.618 35.4574 163.104 34.8551 163.786 34.4119C164.467 33.9631 165.294 33.7386 166.266 33.7386C167.175 33.7386 167.967 33.9375 168.643 34.3352C169.32 34.733 169.845 35.3011 170.22 36.0398C170.595 36.7727 170.783 37.6477 170.783 38.6648V47H167.152V39.3125C167.158 38.5114 166.953 37.8864 166.538 37.4375C166.124 36.983 165.553 36.7557 164.825 36.7557C164.337 36.7557 163.905 36.8608 163.53 37.071C163.161 37.2812 162.871 37.5881 162.661 37.9915C162.456 38.3892 162.351 38.8693 162.345 39.4318ZM177.275 29.5455V47H173.644V29.5455H177.275ZM186.098 47.2557C184.774 47.2557 183.629 46.9744 182.663 46.4119C181.703 45.8437 180.962 45.054 180.439 44.0426C179.916 43.0256 179.655 41.8466 179.655 40.5057C179.655 39.1534 179.916 37.9716 180.439 36.9602C180.962 35.9432 181.703 35.1534 182.663 34.5909C183.629 34.0227 184.774 33.7386 186.098 33.7386C187.422 33.7386 188.564 34.0227 189.524 34.5909C190.49 35.1534 191.234 35.9432 191.757 36.9602C192.28 37.9716 192.541 39.1534 192.541 40.5057C192.541 41.8466 192.28 43.0256 191.757 44.0426C191.234 45.054 190.49 45.8437 189.524 46.4119C188.564 46.9744 187.422 47.2557 186.098 47.2557ZM186.115 44.4432C186.717 44.4432 187.22 44.2727 187.624 43.9318C188.027 43.5852 188.331 43.1136 188.536 42.517C188.746 41.9205 188.851 41.2415 188.851 40.4801C188.851 39.7188 188.746 39.0398 188.536 38.4432C188.331 37.8466 188.027 37.375 187.624 37.0284C187.22 36.6818 186.717 36.5085 186.115 36.5085C185.507 36.5085 184.996 36.6818 184.581 37.0284C184.172 37.375 183.862 37.8466 183.652 38.4432C183.447 39.0398 183.345 39.7188 183.345 40.4801C183.345 41.2415 183.447 41.9205 183.652 42.517C183.862 43.1136 184.172 43.5852 184.581 43.9318C184.996 44.2727 185.507 44.4432 186.115 44.4432ZM198.635 47.2472C197.8 47.2472 197.055 47.1023 196.402 46.8125C195.749 46.517 195.232 46.0824 194.851 45.5085C194.476 44.929 194.288 44.2074 194.288 43.3438C194.288 42.6165 194.422 42.0057 194.689 41.5114C194.956 41.017 195.32 40.6193 195.78 40.3182C196.24 40.017 196.763 39.7898 197.348 39.6364C197.939 39.483 198.558 39.375 199.206 39.3125C199.967 39.233 200.581 39.1591 201.047 39.0909C201.513 39.017 201.851 38.9091 202.061 38.767C202.271 38.625 202.376 38.4148 202.376 38.1364V38.0852C202.376 37.5455 202.206 37.1278 201.865 36.8324C201.53 36.5369 201.053 36.3892 200.433 36.3892C199.78 36.3892 199.26 36.5341 198.874 36.8239C198.487 37.108 198.232 37.4659 198.107 37.8977L194.749 37.625C194.919 36.8295 195.254 36.142 195.754 35.5625C196.254 34.9773 196.899 34.5284 197.689 34.2159C198.484 33.8977 199.405 33.7386 200.45 33.7386C201.178 33.7386 201.874 33.8239 202.538 33.9943C203.209 34.1648 203.803 34.429 204.32 34.7869C204.842 35.1449 205.254 35.6051 205.555 36.1676C205.857 36.7244 206.007 37.392 206.007 38.1705V47H202.564V45.1847H202.462C202.251 45.5938 201.97 45.9545 201.618 46.267C201.266 46.5739 200.842 46.8153 200.348 46.9915C199.854 47.1619 199.283 47.2472 198.635 47.2472ZM199.675 44.7415C200.209 44.7415 200.68 44.6364 201.089 44.4261C201.499 44.2102 201.82 43.9205 202.053 43.5568C202.286 43.1932 202.402 42.7812 202.402 42.321V40.9318C202.288 41.0057 202.132 41.0739 201.933 41.1364C201.74 41.1932 201.521 41.2472 201.277 41.2983C201.033 41.3437 200.788 41.3864 200.544 41.4261C200.3 41.4602 200.078 41.4915 199.879 41.5199C199.453 41.5824 199.081 41.6818 198.763 41.8182C198.445 41.9545 198.197 42.1392 198.021 42.3722C197.845 42.5994 197.757 42.8835 197.757 43.2244C197.757 43.7188 197.936 44.0966 198.294 44.358C198.658 44.6136 199.118 44.7415 199.675 44.7415ZM213.648 47.2131C212.653 47.2131 211.753 46.9574 210.946 46.446C210.145 45.929 209.509 45.1705 209.037 44.1705C208.571 43.1648 208.338 41.9318 208.338 40.4716C208.338 38.9716 208.58 37.7244 209.062 36.7301C209.545 35.7301 210.188 34.983 210.989 34.4886C211.795 33.9886 212.679 33.7386 213.639 33.7386C214.372 33.7386 214.983 33.8636 215.472 34.1136C215.966 34.358 216.364 34.6648 216.665 35.0341C216.972 35.3977 217.205 35.7557 217.364 36.108H217.474V29.5455H221.097V47H217.517V44.9034H217.364C217.193 45.267 216.952 45.6278 216.639 45.9858C216.332 46.3381 215.932 46.6307 215.438 46.8636C214.949 47.0966 214.352 47.2131 213.648 47.2131ZM214.798 44.3239C215.384 44.3239 215.878 44.1648 216.281 43.8466C216.69 43.5227 217.003 43.071 217.219 42.4915C217.44 41.9119 217.551 41.233 217.551 40.4545C217.551 39.6761 217.443 39 217.227 38.4261C217.011 37.8523 216.699 37.4091 216.29 37.0966C215.881 36.7841 215.384 36.6278 214.798 36.6278C214.202 36.6278 213.699 36.7898 213.29 37.1136C212.881 37.4375 212.571 37.8864 212.361 38.4602C212.151 39.0341 212.045 39.6989 212.045 40.4545C212.045 41.2159 212.151 41.8892 212.361 42.4744C212.577 43.054 212.886 43.5085 213.29 43.8381C213.699 44.1619 214.202 44.3239 214.798 44.3239ZM233.395 29.5455V47H229.705V29.5455H233.395ZM252.471 38.2727C252.471 40.1761 252.11 41.7955 251.388 43.1307C250.673 44.4659 249.695 45.4858 248.457 46.1903C247.224 46.8892 245.837 47.2386 244.298 47.2386C242.746 47.2386 241.354 46.8864 240.121 46.1818C238.888 45.4773 237.914 44.4574 237.198 43.1222C236.482 41.7869 236.124 40.1705 236.124 38.2727C236.124 36.3693 236.482 34.75 237.198 33.4148C237.914 32.0795 238.888 31.0625 240.121 30.3636C241.354 29.6591 242.746 29.3068 244.298 29.3068C245.837 29.3068 247.224 29.6591 248.457 30.3636C249.695 31.0625 250.673 32.0795 251.388 33.4148C252.11 34.75 252.471 36.3693 252.471 38.2727ZM248.729 38.2727C248.729 37.0398 248.545 36 248.175 35.1534C247.812 34.3068 247.298 33.6648 246.633 33.2273C245.968 32.7898 245.19 32.571 244.298 32.571C243.406 32.571 242.627 32.7898 241.962 33.2273C241.298 33.6648 240.781 34.3068 240.411 35.1534C240.048 36 239.866 37.0398 239.866 38.2727C239.866 39.5057 240.048 40.5455 240.411 41.392C240.781 42.2386 241.298 42.8807 241.962 43.3182C242.627 43.7557 243.406 43.9744 244.298 43.9744C245.19 43.9744 245.968 43.7557 246.633 43.3182C247.298 42.8807 247.812 42.2386 248.175 41.392C248.545 40.5455 248.729 39.5057 248.729 38.2727ZM264.673 34.5653C264.605 33.8778 264.313 33.3437 263.795 32.9631C263.278 32.5824 262.577 32.392 261.69 32.392C261.088 32.392 260.58 32.4773 260.165 32.6477C259.75 32.8125 259.432 33.0426 259.21 33.3381C258.994 33.6335 258.886 33.9688 258.886 34.3438C258.875 34.6562 258.94 34.929 259.082 35.1619C259.23 35.3949 259.432 35.5966 259.688 35.767C259.943 35.9318 260.239 36.0767 260.574 36.2017C260.909 36.321 261.267 36.4233 261.648 36.5085L263.216 36.8835C263.977 37.054 264.676 37.2812 265.312 37.5653C265.949 37.8494 266.5 38.1989 266.966 38.6136C267.432 39.0284 267.793 39.517 268.048 40.0795C268.31 40.642 268.443 41.2869 268.449 42.0142C268.443 43.0824 268.17 44.0085 267.631 44.7926C267.097 45.571 266.324 46.1761 265.312 46.608C264.307 47.0341 263.094 47.2472 261.673 47.2472C260.264 47.2472 259.037 47.0312 257.991 46.5994C256.952 46.1676 256.139 45.5284 255.554 44.6818C254.974 43.8295 254.67 42.7756 254.642 41.5199H258.213C258.253 42.1051 258.42 42.5937 258.716 42.9858C259.017 43.3722 259.418 43.6648 259.918 43.8636C260.423 44.0568 260.994 44.1534 261.631 44.1534C262.256 44.1534 262.798 44.0625 263.259 43.8807C263.724 43.6989 264.085 43.446 264.341 43.1222C264.597 42.7983 264.724 42.4261 264.724 42.0057C264.724 41.6136 264.608 41.2841 264.375 41.017C264.148 40.75 263.813 40.5227 263.369 40.3352C262.932 40.1477 262.395 39.9773 261.759 39.8239L259.858 39.3466C258.386 38.9886 257.224 38.429 256.372 37.6676C255.52 36.9062 255.097 35.8807 255.102 34.5909C255.097 33.5341 255.378 32.6108 255.946 31.821C256.52 31.0312 257.307 30.4148 258.307 29.9716C259.307 29.5284 260.443 29.3068 261.716 29.3068C263.011 29.3068 264.142 29.5284 265.108 29.9716C266.08 30.4148 266.835 31.0312 267.375 31.821C267.915 32.6108 268.193 33.5256 268.21 34.5653H264.673ZM279.494 47H275.54L281.565 29.5455H286.321L292.338 47H288.384L284.011 33.5341H283.875L279.494 47ZM279.247 40.1392H288.588V43.0199H279.247V40.1392ZM294.371 51.9091V33.9091H297.95V36.108H298.112C298.271 35.7557 298.501 35.3977 298.803 35.0341C299.109 34.6648 299.507 34.358 299.996 34.1136C300.49 33.8636 301.104 33.7386 301.837 33.7386C302.791 33.7386 303.672 33.9886 304.479 34.4886C305.286 34.983 305.93 35.7301 306.413 36.7301C306.896 37.7244 307.138 38.9716 307.138 40.4716C307.138 41.9318 306.902 43.1648 306.43 44.1705C305.964 45.1705 305.328 45.929 304.521 46.446C303.72 46.9574 302.822 47.2131 301.828 47.2131C301.124 47.2131 300.524 47.0966 300.03 46.8636C299.541 46.6307 299.141 46.3381 298.828 45.9858C298.516 45.6278 298.277 45.267 298.112 44.9034H298.001V51.9091H294.371ZM297.925 40.4545C297.925 41.233 298.033 41.9119 298.249 42.4915C298.464 43.071 298.777 43.5227 299.186 43.8466C299.595 44.1648 300.092 44.3239 300.678 44.3239C301.268 44.3239 301.768 44.1619 302.178 43.8381C302.587 43.5085 302.896 43.054 303.107 42.4744C303.322 41.8892 303.43 41.2159 303.43 40.4545C303.43 39.6989 303.325 39.0341 303.115 38.4602C302.905 37.8864 302.595 37.4375 302.186 37.1136C301.777 36.7898 301.274 36.6278 300.678 36.6278C300.087 36.6278 299.587 36.7841 299.178 37.0966C298.774 37.4091 298.464 37.8523 298.249 38.4261C298.033 39 297.925 39.6761 297.925 40.4545ZM309.558 51.9091V33.9091H313.138V36.108H313.3C313.459 35.7557 313.689 35.3977 313.99 35.0341C314.297 34.6648 314.695 34.358 315.183 34.1136C315.678 33.8636 316.291 33.7386 317.024 33.7386C317.979 33.7386 318.859 33.9886 319.666 34.4886C320.473 34.983 321.118 35.7301 321.601 36.7301C322.084 37.7244 322.325 38.9716 322.325 40.4716C322.325 41.9318 322.089 43.1648 321.618 44.1705C321.152 45.1705 320.516 45.929 319.709 46.446C318.908 46.9574 318.01 47.2131 317.016 47.2131C316.311 47.2131 315.712 47.0966 315.217 46.8636C314.729 46.6307 314.328 46.3381 314.016 45.9858C313.703 45.6278 313.464 45.267 313.3 44.9034H313.189V51.9091H309.558ZM313.112 40.4545C313.112 41.233 313.22 41.9119 313.436 42.4915C313.652 43.071 313.964 43.5227 314.374 43.8466C314.783 44.1648 315.28 44.3239 315.865 44.3239C316.456 44.3239 316.956 44.1619 317.365 43.8381C317.774 43.5085 318.084 43.054 318.294 42.4744C318.51 41.8892 318.618 41.2159 318.618 40.4545C318.618 39.6989 318.513 39.0341 318.303 38.4602C318.092 37.8864 317.783 37.4375 317.374 37.1136C316.964 36.7898 316.462 36.6278 315.865 36.6278C315.274 36.6278 314.774 36.7841 314.365 37.0966C313.962 37.4091 313.652 37.8523 313.436 38.4261C313.22 39 313.112 39.6761 313.112 40.4545Z" fill="white"/>
<defs>
<clipPath id="clip0_671_7664">
<rect width="32" height="32" fill="white" transform="translate(63 22)"/>
</clipPath>
</defs>
</svg>
