<svg width="387" height="76" viewBox="0 0 387 76" fill="none" xmlns="http://www.w3.org/2000/svg">
<rect x="1" y="1" width="385" height="74" rx="11" fill="#0A163C"/>
<rect x="1" y="1" width="385" height="74" rx="11" stroke="white" stroke-width="2"/>
<path fill-rule="evenodd" clip-rule="evenodd" d="M36.9504 24.313C36.9504 24.2514 36.9529 24.1898 36.9578 24.1332L50.8259 37.9988L36.9578 51.8668C36.953 51.807 36.9505 51.747 36.9504 51.687V24.313ZM40.0492 54C40.2955 53.9532 40.5418 53.8694 40.7832 53.7487L57.8855 45.0609L53.4369 40.6123L40.0492 54ZM56.0504 37.9988L61.3513 43.2997L67.7213 40.063C69.4924 39.1639 69.4924 36.8361 67.7213 35.937L61.3489 32.7003L56.0504 37.9988ZM57.8855 30.9391L40.7832 22.2513C40.5516 22.1334 40.3045 22.0488 40.0492 22L53.4369 35.3853L57.8855 30.9391Z" fill="white"/>
<path d="M86.7541 47H80.5666V29.5455H86.8052C88.5609 29.5455 90.0723 29.8949 91.3393 30.5938C92.6064 31.2869 93.5808 32.2841 94.2626 33.5852C94.9501 34.8864 95.2939 36.4432 95.2939 38.2557C95.2939 40.0739 94.9501 41.6364 94.2626 42.9432C93.5808 44.25 92.6007 45.2528 91.3223 45.9517C90.0496 46.6506 88.5268 47 86.7541 47ZM84.2569 43.8381H86.6007C87.6916 43.8381 88.6092 43.6449 89.3535 43.2585C90.1035 42.8665 90.666 42.2614 91.041 41.4432C91.4217 40.6193 91.6121 39.5568 91.6121 38.2557C91.6121 36.9659 91.4217 35.9119 91.041 35.0938C90.666 34.2756 90.1064 33.6733 89.3621 33.2869C88.6177 32.9006 87.7001 32.7074 86.6092 32.7074H84.2569V43.8381ZM103.874 47.2557C102.55 47.2557 101.405 46.9744 100.439 46.4119C99.4792 45.8437 98.7378 45.054 98.215 44.0426C97.6923 43.0256 97.431 41.8466 97.431 40.5057C97.431 39.1534 97.6923 37.9716 98.215 36.9602C98.7378 35.9432 99.4792 35.1534 100.439 34.5909C101.405 34.0227 102.55 33.7386 103.874 33.7386C105.198 33.7386 106.34 34.0227 107.3 34.5909C108.266 35.1534 109.01 35.9432 109.533 36.9602C110.056 37.9716 110.317 39.1534 110.317 40.5057C110.317 41.8466 110.056 43.0256 109.533 44.0426C109.01 45.054 108.266 45.8437 107.3 46.4119C106.34 46.9744 105.198 47.2557 103.874 47.2557ZM103.891 44.4432C104.493 44.4432 104.996 44.2727 105.4 43.9318C105.803 43.5852 106.107 43.1136 106.312 42.517C106.522 41.9205 106.627 41.2415 106.627 40.4801C106.627 39.7188 106.522 39.0398 106.312 38.4432C106.107 37.8466 105.803 37.375 105.4 37.0284C104.996 36.6818 104.493 36.5085 103.891 36.5085C103.283 36.5085 102.772 36.6818 102.357 37.0284C101.948 37.375 101.638 37.8466 101.428 38.4432C101.224 39.0398 101.121 39.7188 101.121 40.4801C101.121 41.2415 101.224 41.9205 101.428 42.517C101.638 43.1136 101.948 43.5852 102.357 43.9318C102.772 44.2727 103.283 44.4432 103.891 44.4432ZM114.932 47L111.37 33.9091H115.043L117.072 42.7045H117.191L119.305 33.9091H122.91L125.057 42.6534H125.168L127.162 33.9091H130.827L127.273 47H123.43L121.18 38.767H121.018L118.768 47H114.932ZM136.395 39.4318V47H132.764V33.9091H136.224V36.2188H136.378C136.667 35.4574 137.153 34.8551 137.835 34.4119C138.517 33.9631 139.344 33.7386 140.315 33.7386C141.224 33.7386 142.017 33.9375 142.693 34.3352C143.369 34.733 143.895 35.3011 144.27 36.0398C144.645 36.7727 144.832 37.6477 144.832 38.6648V47H141.202V39.3125C141.207 38.5114 141.003 37.8864 140.588 37.4375C140.173 36.983 139.602 36.7557 138.875 36.7557C138.386 36.7557 137.954 36.8608 137.579 37.071C137.21 37.2812 136.92 37.5881 136.71 37.9915C136.506 38.3892 136.4 38.8693 136.395 39.4318ZM151.324 29.5455V47H147.694V29.5455H151.324ZM160.148 47.2557C158.824 47.2557 157.679 46.9744 156.713 46.4119C155.753 45.8437 155.011 45.054 154.488 44.0426C153.966 43.0256 153.704 41.8466 153.704 40.5057C153.704 39.1534 153.966 37.9716 154.488 36.9602C155.011 35.9432 155.753 35.1534 156.713 34.5909C157.679 34.0227 158.824 33.7386 160.148 33.7386C161.471 33.7386 162.613 34.0227 163.574 34.5909C164.54 35.1534 165.284 35.9432 165.807 36.9602C166.329 37.9716 166.591 39.1534 166.591 40.5057C166.591 41.8466 166.329 43.0256 165.807 44.0426C165.284 45.054 164.54 45.8437 163.574 46.4119C162.613 46.9744 161.471 47.2557 160.148 47.2557ZM160.165 44.4432C160.767 44.4432 161.27 44.2727 161.673 43.9318C162.077 43.5852 162.381 43.1136 162.585 42.517C162.795 41.9205 162.9 41.2415 162.9 40.4801C162.9 39.7188 162.795 39.0398 162.585 38.4432C162.381 37.8466 162.077 37.375 161.673 37.0284C161.27 36.6818 160.767 36.5085 160.165 36.5085C159.557 36.5085 159.045 36.6818 158.631 37.0284C158.221 37.375 157.912 37.8466 157.702 38.4432C157.497 39.0398 157.395 39.7188 157.395 40.4801C157.395 41.2415 157.497 41.9205 157.702 42.517C157.912 43.1136 158.221 43.5852 158.631 43.9318C159.045 44.2727 159.557 44.4432 160.165 44.4432ZM172.685 47.2472C171.849 47.2472 171.105 47.1023 170.452 46.8125C169.798 46.517 169.281 46.0824 168.9 45.5085C168.525 44.929 168.338 44.2074 168.338 43.3438C168.338 42.6165 168.471 42.0057 168.738 41.5114C169.006 41.017 169.369 40.6193 169.829 40.3182C170.29 40.017 170.812 39.7898 171.398 39.6364C171.988 39.483 172.608 39.375 173.256 39.3125C174.017 39.233 174.631 39.1591 175.096 39.0909C175.562 39.017 175.9 38.9091 176.111 38.767C176.321 38.625 176.426 38.4148 176.426 38.1364V38.0852C176.426 37.5455 176.256 37.1278 175.915 36.8324C175.579 36.5369 175.102 36.3892 174.483 36.3892C173.829 36.3892 173.31 36.5341 172.923 36.8239C172.537 37.108 172.281 37.4659 172.156 37.8977L168.798 37.625C168.969 36.8295 169.304 36.142 169.804 35.5625C170.304 34.9773 170.949 34.5284 171.738 34.2159C172.534 33.8977 173.454 33.7386 174.5 33.7386C175.227 33.7386 175.923 33.8239 176.588 33.9943C177.258 34.1648 177.852 34.429 178.369 34.7869C178.892 35.1449 179.304 35.6051 179.605 36.1676C179.906 36.7244 180.057 37.392 180.057 38.1705V47H176.613V45.1847H176.511C176.301 45.5938 176.02 45.9545 175.667 46.267C175.315 46.5739 174.892 46.8153 174.398 46.9915C173.903 47.1619 173.332 47.2472 172.685 47.2472ZM173.724 44.7415C174.258 44.7415 174.73 44.6364 175.139 44.4261C175.548 44.2102 175.869 43.9205 176.102 43.5568C176.335 43.1932 176.452 42.7812 176.452 42.321V40.9318C176.338 41.0057 176.182 41.0739 175.983 41.1364C175.79 41.1932 175.571 41.2472 175.327 41.2983C175.082 41.3437 174.838 41.3864 174.594 41.4261C174.349 41.4602 174.128 41.4915 173.929 41.5199C173.503 41.5824 173.131 41.6818 172.812 41.8182C172.494 41.9545 172.247 42.1392 172.071 42.3722C171.895 42.5994 171.807 42.8835 171.807 43.2244C171.807 43.7188 171.986 44.0966 172.344 44.358C172.707 44.6136 173.167 44.7415 173.724 44.7415ZM187.697 47.2131C186.703 47.2131 185.802 46.9574 184.996 46.446C184.194 45.929 183.558 45.1705 183.086 44.1705C182.621 43.1648 182.388 41.9318 182.388 40.4716C182.388 38.9716 182.629 37.7244 183.112 36.7301C183.595 35.7301 184.237 34.983 185.038 34.4886C185.845 33.9886 186.729 33.7386 187.689 33.7386C188.422 33.7386 189.033 33.8636 189.521 34.1136C190.015 34.358 190.413 34.6648 190.714 35.0341C191.021 35.3977 191.254 35.7557 191.413 36.108H191.524V29.5455H195.146V47H191.567V44.9034H191.413C191.243 45.267 191.001 45.6278 190.689 45.9858C190.382 46.3381 189.981 46.6307 189.487 46.8636C188.998 47.0966 188.402 47.2131 187.697 47.2131ZM188.848 44.3239C189.433 44.3239 189.927 44.1648 190.331 43.8466C190.74 43.5227 191.052 43.071 191.268 42.4915C191.49 41.9119 191.601 41.233 191.601 40.4545C191.601 39.6761 191.493 39 191.277 38.4261C191.061 37.8523 190.748 37.4091 190.339 37.0966C189.93 36.7841 189.433 36.6278 188.848 36.6278C188.251 36.6278 187.748 36.7898 187.339 37.1136C186.93 37.4375 186.621 37.8864 186.41 38.4602C186.2 39.0341 186.095 39.6989 186.095 40.4545C186.095 41.2159 186.2 41.8892 186.41 42.4744C186.626 43.054 186.936 43.5085 187.339 43.8381C187.748 44.1619 188.251 44.3239 188.848 44.3239ZM206.763 47H202.808L208.834 29.5455H213.589L219.606 47H215.652L211.28 33.5341H211.143L206.763 47ZM206.515 40.1392H215.856V43.0199H206.515V40.1392ZM225.27 39.4318V47H221.639V33.9091H225.099V36.2188H225.253C225.542 35.4574 226.028 34.8551 226.71 34.4119C227.392 33.9631 228.219 33.7386 229.19 33.7386C230.099 33.7386 230.892 33.9375 231.568 34.3352C232.244 34.733 232.77 35.3011 233.145 36.0398C233.52 36.7727 233.707 37.6477 233.707 38.6648V47H230.077V39.3125C230.082 38.5114 229.878 37.8864 229.463 37.4375C229.048 36.983 228.477 36.7557 227.75 36.7557C227.261 36.7557 226.829 36.8608 226.454 37.071C226.085 37.2812 225.795 37.5881 225.585 37.9915C225.381 38.3892 225.275 38.8693 225.27 39.4318ZM241.393 47.2131C240.398 47.2131 239.498 46.9574 238.691 46.446C237.89 45.929 237.253 45.1705 236.782 44.1705C236.316 43.1648 236.083 41.9318 236.083 40.4716C236.083 38.9716 236.324 37.7244 236.807 36.7301C237.29 35.7301 237.932 34.983 238.734 34.4886C239.54 33.9886 240.424 33.7386 241.384 33.7386C242.117 33.7386 242.728 33.8636 243.216 34.1136C243.711 34.358 244.109 34.6648 244.41 35.0341C244.716 35.3977 244.949 35.7557 245.109 36.108H245.219V29.5455H248.841V47H245.262V44.9034H245.109C244.938 45.267 244.697 45.6278 244.384 45.9858C244.077 46.3381 243.677 46.6307 243.182 46.8636C242.694 47.0966 242.097 47.2131 241.393 47.2131ZM242.543 44.3239C243.128 44.3239 243.623 44.1648 244.026 43.8466C244.435 43.5227 244.748 43.071 244.964 42.4915C245.185 41.9119 245.296 41.233 245.296 40.4545C245.296 39.6761 245.188 39 244.972 38.4261C244.756 37.8523 244.444 37.4091 244.035 37.0966C243.626 36.7841 243.128 36.6278 242.543 36.6278C241.947 36.6278 241.444 36.7898 241.035 37.1136C240.626 37.4375 240.316 37.8864 240.106 38.4602C239.895 39.0341 239.79 39.6989 239.79 40.4545C239.79 41.2159 239.895 41.8892 240.106 42.4744C240.322 43.054 240.631 43.5085 241.035 43.8381C241.444 44.1619 241.947 44.3239 242.543 44.3239ZM251.827 47V33.9091H255.346V36.1932H255.483C255.721 35.3807 256.122 34.767 256.685 34.3523C257.247 33.9318 257.895 33.7216 258.628 33.7216C258.81 33.7216 259.006 33.733 259.216 33.7557C259.426 33.7784 259.611 33.8097 259.77 33.8494V37.071C259.599 37.0199 259.363 36.9744 259.062 36.9347C258.761 36.8949 258.486 36.875 258.236 36.875C257.702 36.875 257.224 36.9915 256.804 37.2244C256.389 37.4517 256.06 37.7699 255.815 38.179C255.577 38.5881 255.457 39.0597 255.457 39.5938V47H251.827ZM266.952 47.2557C265.628 47.2557 264.484 46.9744 263.518 46.4119C262.557 45.8437 261.816 45.054 261.293 44.0426C260.77 43.0256 260.509 41.8466 260.509 40.5057C260.509 39.1534 260.77 37.9716 261.293 36.9602C261.816 35.9432 262.557 35.1534 263.518 34.5909C264.484 34.0227 265.628 33.7386 266.952 33.7386C268.276 33.7386 269.418 34.0227 270.378 34.5909C271.344 35.1534 272.089 35.9432 272.611 36.9602C273.134 37.9716 273.395 39.1534 273.395 40.5057C273.395 41.8466 273.134 43.0256 272.611 44.0426C272.089 45.054 271.344 45.8437 270.378 46.4119C269.418 46.9744 268.276 47.2557 266.952 47.2557ZM266.969 44.4432C267.572 44.4432 268.074 44.2727 268.478 43.9318C268.881 43.5852 269.185 43.1136 269.39 42.517C269.6 41.9205 269.705 41.2415 269.705 40.4801C269.705 39.7188 269.6 39.0398 269.39 38.4432C269.185 37.8466 268.881 37.375 268.478 37.0284C268.074 36.6818 267.572 36.5085 266.969 36.5085C266.361 36.5085 265.85 36.6818 265.435 37.0284C265.026 37.375 264.716 37.8466 264.506 38.4432C264.302 39.0398 264.199 39.7188 264.199 40.4801C264.199 41.2415 264.302 41.9205 264.506 42.517C264.716 43.1136 265.026 43.5852 265.435 43.9318C265.85 44.2727 266.361 44.4432 266.969 44.4432ZM275.756 47V33.9091H279.387V47H275.756ZM277.58 32.2216C277.04 32.2216 276.577 32.0426 276.191 31.6847C275.81 31.321 275.62 30.8864 275.62 30.3807C275.62 29.8807 275.81 29.4517 276.191 29.0938C276.577 28.7301 277.04 28.5483 277.58 28.5483C278.12 28.5483 278.58 28.7301 278.961 29.0938C279.347 29.4517 279.54 29.8807 279.54 30.3807C279.54 30.8864 279.347 31.321 278.961 31.6847C278.58 32.0426 278.12 32.2216 277.58 32.2216ZM287.119 47.2131C286.125 47.2131 285.224 46.9574 284.417 46.446C283.616 45.929 282.98 45.1705 282.508 44.1705C282.042 43.1648 281.81 41.9318 281.81 40.4716C281.81 38.9716 282.051 37.7244 282.534 36.7301C283.017 35.7301 283.659 34.983 284.46 34.4886C285.267 33.9886 286.15 33.7386 287.111 33.7386C287.844 33.7386 288.454 33.8636 288.943 34.1136C289.437 34.358 289.835 34.6648 290.136 35.0341C290.443 35.3977 290.676 35.7557 290.835 36.108H290.946V29.5455H294.568V47H290.988V44.9034H290.835C290.665 45.267 290.423 45.6278 290.111 45.9858C289.804 46.3381 289.403 46.6307 288.909 46.8636C288.42 47.0966 287.824 47.2131 287.119 47.2131ZM288.27 44.3239C288.855 44.3239 289.349 44.1648 289.753 43.8466C290.162 43.5227 290.474 43.071 290.69 42.4915C290.912 41.9119 291.023 41.233 291.023 40.4545C291.023 39.6761 290.915 39 290.699 38.4261C290.483 37.8523 290.17 37.4091 289.761 37.0966C289.352 36.7841 288.855 36.6278 288.27 36.6278C287.673 36.6278 287.17 36.7898 286.761 37.1136C286.352 37.4375 286.042 37.8864 285.832 38.4602C285.622 39.0341 285.517 39.6989 285.517 40.4545C285.517 41.2159 285.622 41.8892 285.832 42.4744C286.048 43.054 286.358 43.5085 286.761 43.8381C287.17 44.1619 287.673 44.3239 288.27 44.3239ZM306.185 47H302.23L308.256 29.5455H313.011L319.028 47H315.074L310.702 33.5341H310.565L306.185 47ZM305.937 40.1392H315.278V43.0199H305.937V40.1392ZM321.061 51.9091V33.9091H324.64V36.108H324.802C324.961 35.7557 325.192 35.3977 325.493 35.0341C325.8 34.6648 326.197 34.358 326.686 34.1136C327.18 33.8636 327.794 33.7386 328.527 33.7386C329.481 33.7386 330.362 33.9886 331.169 34.4886C331.976 34.983 332.621 35.7301 333.104 36.7301C333.586 37.7244 333.828 38.9716 333.828 40.4716C333.828 41.9318 333.592 43.1648 333.121 44.1705C332.655 45.1705 332.018 45.929 331.211 46.446C330.41 46.9574 329.513 47.2131 328.518 47.2131C327.814 47.2131 327.214 47.0966 326.72 46.8636C326.231 46.6307 325.831 46.3381 325.518 45.9858C325.206 45.6278 324.967 45.267 324.802 44.9034H324.692V51.9091H321.061ZM324.615 40.4545C324.615 41.233 324.723 41.9119 324.939 42.4915C325.155 43.071 325.467 43.5227 325.876 43.8466C326.285 44.1648 326.783 44.3239 327.368 44.3239C327.959 44.3239 328.459 44.1619 328.868 43.8381C329.277 43.5085 329.586 43.054 329.797 42.4744C330.013 41.8892 330.121 41.2159 330.121 40.4545C330.121 39.6989 330.015 39.0341 329.805 38.4602C329.595 37.8864 329.285 37.4375 328.876 37.1136C328.467 36.7898 327.964 36.6278 327.368 36.6278C326.777 36.6278 326.277 36.7841 325.868 37.0966C325.464 37.4091 325.155 37.8523 324.939 38.4261C324.723 39 324.615 39.6761 324.615 40.4545ZM336.248 51.9091V33.9091H339.828V36.108H339.99C340.149 35.7557 340.379 35.3977 340.68 35.0341C340.987 34.6648 341.385 34.358 341.873 34.1136C342.368 33.8636 342.981 33.7386 343.714 33.7386C344.669 33.7386 345.55 33.9886 346.356 34.4886C347.163 34.983 347.808 35.7301 348.291 36.7301C348.774 37.7244 349.015 38.9716 349.015 40.4716C349.015 41.9318 348.78 43.1648 348.308 44.1705C347.842 45.1705 347.206 45.929 346.399 46.446C345.598 46.9574 344.7 47.2131 343.706 47.2131C343.001 47.2131 342.402 47.0966 341.908 46.8636C341.419 46.6307 341.018 46.3381 340.706 45.9858C340.393 45.6278 340.155 45.267 339.99 44.9034H339.879V51.9091H336.248ZM339.802 40.4545C339.802 41.233 339.91 41.9119 340.126 42.4915C340.342 43.071 340.655 43.5227 341.064 43.8466C341.473 44.1648 341.97 44.3239 342.555 44.3239C343.146 44.3239 343.646 44.1619 344.055 43.8381C344.464 43.5085 344.774 43.054 344.984 42.4744C345.2 41.8892 345.308 41.2159 345.308 40.4545C345.308 39.6989 345.203 39.0341 344.993 38.4602C344.783 37.8864 344.473 37.4375 344.064 37.1136C343.655 36.7898 343.152 36.6278 342.555 36.6278C341.964 36.6278 341.464 36.7841 341.055 37.0966C340.652 37.4091 340.342 37.8523 340.126 38.4261C339.91 39 339.802 39.6761 339.802 40.4545Z" fill="white"/>
</svg>
