<svg width="92" height="92" viewBox="0 0 92 92" fill="none" xmlns="http://www.w3.org/2000/svg">
<circle cx="46" cy="46" r="45.5" fill="white" stroke="#CBCBCB"/>
<path d="M46 46C42.95 46 40.0249 44.7884 37.8683 42.6317C35.7116 40.4751 34.5 37.55 34.5 34.5C34.5 31.45 35.7116 28.5249 37.8683 26.3683C40.0249 24.2116 42.95 23 46 23C49.05 23 51.9751 24.2116 54.1317 26.3683C56.2884 28.5249 57.5 31.45 57.5 34.5C57.5 37.55 56.2884 40.4751 54.1317 42.6317C51.9751 44.7884 49.05 46 46 46ZM46 54.625C55.1598 54.625 63.3794 56.2666 69 63.4311V69H23V63.4311C28.6206 56.2637 36.8403 54.625 46 54.625Z" fill="#00A3FF"/>
</svg>
