<?xml version="1.0" standalone="no"?>
<!DOCTYPE svg PUBLIC "-//W3C//DTD SVG 1.1//EN" "http://www.w3.org/Graphics/SVG/1.1/DTD/svg11.dtd" >
<svg xmlns="http://www.w3.org/2000/svg">
<metadata>Generated by IcoMoon</metadata>
<defs>
<font id="icomoon" horiz-adv-x="1024">
<font-face units-per-em="1024" ascent="960" descent="-64" />
<missing-glyph horiz-adv-x="1024" />
<glyph unicode="&#x20;" horiz-adv-x="512" d="" />
<glyph unicode="&#xe900;" glyph-name="comment" d="M351.267 146.807l-180.599-40.141 40.141 180.599c-26.435 49.446-40.225 104.666-40.141 160.734 0 188.518 152.815 341.333 341.333 341.333s341.333-152.815 341.333-341.333c0-188.518-152.815-341.333-341.333-341.333-56.068-0.085-111.287 13.705-160.733 40.141z" />
<glyph unicode="&#xe901;" horiz-adv-x="1067" d="M1045.333 448c0-282.77-229.23-512-512-512s-512 229.23-512 512c0 282.77 229.23 512 512 512s512-229.23 512-512z" />
<glyph unicode="&#xe902;" horiz-adv-x="1067" d="M724.681 438.306c-3.221-9.681-8.431-18.611-15.309-26.24l-39.305-38.298-76.002 74.061 76.002 74.061 39.305-37.559c6.878-5.363 11.998-12.587 14.729-20.779 2.718-8.175 2.923-16.956 0.58-25.246zM529.246 268.070c-9.681 3.247-18.581 8.397-26.167 15.13l-39.194 38.195 76.002 74.061 76.002-74.061-39.411-38.404c-5.53-6.72-12.941-11.708-21.321-14.353-8.397-2.65-17.399-2.85-25.911-0.567zM354.444 458.517c3.27 9.702 8.557 18.637 15.526 26.236l39.302 38.195 76-74.061-76-74.065-39.411 38.409c-6.885 5.385-12.015 12.625-14.761 20.83-2.737 8.188-2.966 16.986-0.657 25.301v-0.845zM549.879 629.598c9.984-3.144 19.191-8.297 27.029-15.129l39.198-38.196-76.002-74.061-76.002 74.061 38.976 37.349c5.53 6.718 12.941 11.707 21.325 14.352 8.397 2.65 17.399 2.848 25.907 0.567l-0.431 1.057zM763.661 536.704l-133.116 129.292c-15.607 14.213-34.108 25.029-54.285 31.739-45.278 14.708-90.223 3.281-126.707-31.739l-133.218-129.292c-14.556-15.176-25.658-33.207-32.573-52.902-15.091-44.122-3.367-88.026 32.573-123.575l132.458-129.613c15.543-14.451 34.048-25.489 54.285-32.375 12.356-4.066 25.297-6.17 38.332-6.238 16.627 0.324 33.024 3.913 48.218 10.551 15.168 6.622 28.826 16.166 40.162 28.062l133.871 129.19c14.754 15.121 26.044 33.156 33.114 52.898 15.091 44.122 3.255 88.026-33.114 123.473z" />
<glyph unicode="&#xe903;" glyph-name="pin" d="M417.294 360.585c12.496-12.497 12.496-32.755 0-45.252l-277.333-277.333c-12.497-12.497-32.758-12.497-45.255 0s-12.497 32.755 0 45.252l277.333 277.333c12.497 12.497 32.758 12.497 45.255 0zM202.667 551.936l392.235-392.235 72.405 72.405-16.768 161.579 235.093 199.381-249.6 249.6-199.424-235.093-161.536 16.768-72.405-72.405zM634.722 874.64c8.934 0.366 17.613-3.023 23.936-9.346l249.6-249.6c6.323-6.323 9.715-15.004 9.348-23.939s-4.459-17.309-11.277-23.093l-222.221-188.463 15.027-144.789c0.994-9.587-2.385-19.115-9.203-25.929l-72.405-72.405c-12.497-12.497-32.755-12.497-45.252 0l-392.236 392.235c-6.001 6-9.373 14.139-9.373 22.626s3.372 16.626 9.373 22.627l72.405 72.405c6.816 6.816 16.343 10.197 25.932 9.201l144.748-15.025 188.507 222.222c5.781 6.819 14.157 10.907 23.091 11.273zM637.965 795.478l-176.956-208.605c-6.831-8.055-17.199-12.219-27.703-11.129l-146.381 15.194-39.003-39.003 346.98-346.978 39.002 39.002-15.194 146.423c-1.092 10.505 3.076 20.877 11.132 27.708l208.602 176.912-200.478 200.475z" />
<glyph unicode="&#xe904;" glyph-name="share" d="M904.533 470.754l-318.579 318.579v-182.045c-318.576-45.511-455.11-273.068-500.621-500.622 113.778 159.287 273.067 232.107 500.621 232.107v-186.594l318.579 318.575z" />
<glyph unicode="&#xe905;" glyph-name="info" d="M512 960c-282.624 0-512-229.376-512-512s229.376-512 512-512c282.624 0 512 229.376 512 512s-229.376 512-512 512zM512 192c-28.16 0-51.2 23.040-51.2 51.2v204.8c0 28.16 23.040 51.2 51.2 51.2s51.2-23.040 51.2-51.2v-204.8c0-28.16-23.040-51.2-51.2-51.2zM563.2 601.6h-102.4v102.4h102.4v-102.4z" />
<glyph unicode="&#xe906;" glyph-name="upload" d="M475.797 945.004c19.994 19.995 52.412 19.995 72.407 0l256-256.001c19.996-19.994 19.996-52.412 0-72.407-19.994-19.996-52.412-19.996-72.407 0l-168.597 168.595v-490.792c0-28.277-22.923-51.2-51.2-51.2s-51.2 22.923-51.2 51.2v490.792l-168.597-168.595c-19.994-19.996-52.412-19.996-72.407 0-19.996 19.994-19.996 52.412 0 72.407l256 256.001zM51.2 345.6c28.277 0 51.2-22.923 51.2-51.2v-204.8c0-13.58 5.394-26.603 14.996-36.203 9.602-9.602 22.625-14.997 36.204-14.997h716.8c13.58 0 26.603 5.394 36.203 14.997 9.602 9.601 14.997 22.624 14.997 36.203v204.8c0 28.277 22.923 51.2 51.2 51.2s51.2-22.923 51.2-51.2v-204.8c0-40.737-16.183-79.806-44.988-108.612s-67.875-44.988-108.612-44.988h-716.8c-40.737 0-79.806 16.183-108.612 44.988s-44.988 67.875-44.988 108.612v204.8c0 28.277 22.923 51.2 51.2 51.2z" />
<glyph unicode="&#xe907;" glyph-name="add-folder" d="M997.043 340.214v-269.471c0-28.585-11.356-56.003-31.57-76.216s-47.631-31.57-76.216-31.57h-754.519c-28.587 0-56.003 11.356-76.217 31.57s-31.571 47.631-31.571 76.216v754.519c0 28.587 11.356 56.003 31.571 76.217s47.63 31.571 76.217 31.571h269.471v-107.788h-269.471v-754.519h754.519v269.471h107.786zM134.735 906.106c-21.441 0-42.003-8.517-57.163-23.678s-23.678-35.723-23.678-57.163v-754.516c0-21.443 8.517-42.004 23.678-57.165s35.723-23.675 57.163-23.675h754.516c21.443 0 42.004 8.515 57.165 23.675s23.675 35.722 23.675 57.165v242.524h-53.893v-269.471h-808.41v808.41h269.47v53.894h-242.523zM39.463 920.537c25.268 25.268 59.538 39.463 95.272 39.463h296.417v-161.682h-269.47v-700.623h700.623v269.471h161.684v-296.417c0-35.732-14.198-70.006-39.465-95.273s-59.54-39.465-95.273-39.465h-754.516c-35.734 0-70.005 14.198-95.272 39.465s-39.463 59.54-39.463 95.273v754.516c0 35.734 14.195 70.005 39.463 95.272zM997.028 717.474h-215.578v215.576h-107.786v-215.576h-215.577v-107.788h215.577v-215.579h107.786v215.579h215.578v107.788zM646.738 960h161.684v-215.576h215.572v-161.682h-215.572v-215.576h-161.684v215.576h-215.576v161.682h215.576v215.576zM700.631 906.106v-215.576h-215.575v-53.894h215.575v-215.577h53.898v215.577h215.572v53.894h-215.572v215.576h-53.898z" />
<glyph unicode="&#xe908;" glyph-name="paint" d="M746.666 448c-16.973 0-33.251 6.742-45.254 18.746s-18.746 28.282-18.746 45.254c0 16.973 6.742 33.251 18.746 45.254s28.282 18.746 45.254 18.746c16.976 0 33.254-6.742 45.254-18.746 12.003-12.003 18.746-28.282 18.746-45.254s-6.742-33.251-18.746-45.254c-12-12.003-28.278-18.746-45.254-18.746zM618.666 618.666c-16.973 0-33.251 6.742-45.254 18.746s-18.746 28.282-18.746 45.255c0 16.974 6.742 33.252 18.746 45.255s28.282 18.745 45.254 18.745c16.976 0 33.254-6.743 45.254-18.745 12.003-12.003 18.746-28.281 18.746-45.255s-6.742-33.252-18.746-45.255c-12-12.003-28.278-18.746-45.254-18.746zM405.334 618.666c-16.976 0-33.254 6.742-45.254 18.746-12.003 12.003-18.746 28.282-18.746 45.255s6.742 33.252 18.746 45.255c12 12.002 28.278 18.745 45.254 18.745 16.973 0 33.251-6.743 45.254-18.745s18.746-28.281 18.746-45.255c0-16.974-6.742-33.252-18.746-45.255s-28.282-18.746-45.254-18.746zM277.333 448c-16.974 0-33.252 6.742-45.255 18.746s-18.745 28.282-18.745 45.254c0 16.973 6.743 33.251 18.745 45.254s28.281 18.746 45.255 18.746c16.974 0 33.252-6.742 45.255-18.746s18.746-28.282 18.746-45.254c0-16.973-6.742-33.251-18.746-45.254s-28.282-18.746-45.255-18.746zM512 832c-101.843 0-199.515-40.457-271.529-112.471s-112.471-169.686-112.471-271.529c0-101.843 40.457-199.514 112.471-271.53 72.014-72.013 169.686-112.47 271.529-112.47 16.973 0 33.251 6.742 45.254 18.746s18.746 28.282 18.746 45.254c0 16.64-6.4 31.574-16.64 42.666-9.814 11.52-16.214 26.454-16.214 42.669 0 16.973 6.742 33.251 18.746 45.254s28.282 18.746 45.254 18.746h75.52c56.579 0 110.842 22.474 150.851 62.483 40.006 40.006 62.483 94.269 62.483 150.848 0 188.588-171.946 341.334-384 341.334z" />
<glyph unicode="&#xe909;" glyph-name="cat-flower" d="M767.997 661.328c0-11.179-0.723-22.186-2.131-33.024 55.92-31.408 98.013-82.662 117.949-143.622 19.939-60.957 16.269-127.181-10.285-185.562-26.55-58.381-74.051-104.672-133.098-129.709-59.050-25.037-125.344-26.995-185.766-5.491v-142.592h-85.334v153.6c-49.187-25.126-105.661-32.099-159.48-19.69-53.821 12.406-101.54 43.405-134.759 87.53-33.219 44.128-49.808 98.557-46.849 153.712 2.96 55.152 25.279 107.494 63.029 147.814 16.68-45.642 42.907-87.2 76.928-121.901l60.929 59.734c-46.932 47.834-73.195 112.189-73.132 179.2 0 67.896 26.972 133.010 74.981 181.020s113.123 74.98 181.018 74.98c67.898 0 133.011-26.971 181.021-74.98s74.979-113.124 74.979-181.020z" />
<glyph unicode="&#xe90a;" glyph-name="music" horiz-adv-x="918" d="M211.874 156.195c103.859 0 188.323 84.462 188.323 188.324v477.63l423.724-154.047v-349.808c-28.492 16.974-60.999 26.027-94.162 26.225-103.858 0-188.321-84.462-188.321-188.324 0-103.858 84.462-188.321 188.321-188.321s188.321 84.462 188.321 188.321v544.863c0.007 9.659-2.963 19.087-8.506 26.997s-13.39 13.92-22.472 17.211l-517.886 188.322c-7.108 2.599-14.742 3.444-22.246 2.462-7.506-0.981-14.664-3.76-20.866-8.1s-11.265-10.112-14.759-16.827c-3.494-6.715-5.315-14.174-5.31-21.744v-382.766c-28.49 16.977-60.998 26.031-94.161 26.225-103.86 0-188.322-84.462-188.322-188.321 0-103.862 84.462-188.324 188.322-188.324z" />
<glyph unicode="&#xe90b;" glyph-name="Ellipse" horiz-adv-x="983" d="M983.040 448c0-271.459-220.061-491.52-491.52-491.52s-491.52 220.061-491.52 491.52c0 271.459 220.061 491.52 491.52 491.52s491.52-220.061 491.52-491.52z" />
<glyph unicode="&#xe90c;" glyph-name="add" d="M443.733 379.733h-409.6v136.533h409.6v409.6h136.533v-409.6h409.6v-136.533h-409.6v-409.6h-136.533v409.6z" />
<glyph unicode="&#xe90d;" glyph-name="eye" horiz-adv-x="1408" d="M704 640c-50.918 0-99.757-20.228-135.764-56.236s-56.236-84.843-56.236-135.764c0-50.922 20.228-99.757 56.236-135.763s84.846-56.237 135.764-56.237c50.918 0 99.757 20.23 135.763 56.237s56.237 84.842 56.237 135.763c0 50.922-20.23 99.757-56.237 135.764s-84.845 56.236-135.763 56.236zM704 128c-84.869 0-166.262 33.715-226.274 93.728-60.012 60.006-93.726 141.403-93.726 226.272s33.714 166.262 93.726 226.274c60.012 60.012 141.405 93.726 226.274 93.726s166.266-33.714 226.272-93.726c60.013-60.012 93.728-141.405 93.728-226.274s-33.715-166.266-93.728-226.272c-60.006-60.013-141.402-93.728-226.272-93.728zM704 928c-320 0-593.28-199.040-704-480 110.72-280.96 384-480 704-480s593.28 199.040 704 480c-110.72 280.96-384 480-704 480z" />
<glyph unicode="&#xe90e;" glyph-name="attach" d="M644.877 895.999c-34.108 0.091-67.894-6.577-99.409-19.62s-60.132-32.202-84.2-56.371l-318.011-318.080c-9.756-9.737-15.244-22.951-15.257-36.735s5.45-27.008 15.188-36.764c9.737-9.756 22.951-15.244 36.735-15.257s27.008 5.45 36.764 15.188l318.149 318.219c29.596 27.208 68.561 41.928 108.755 41.084 40.192-0.844 78.509-17.187 106.938-45.615 28.422-28.428 44.768-66.74 45.613-106.934s-13.875-79.159-41.088-108.755l-367.007-367.012c-9.839-9.165-22.854-14.157-36.301-13.92s-26.278 5.683-35.788 15.194c-9.51 9.51-14.957 22.342-15.195 35.789s4.754 26.458 13.923 36.301l367.011 367.009c9.754 9.747 15.238 22.969 15.245 36.759s-5.466 27.018-15.213 36.774c-9.747 9.756-22.97 15.24-36.755 15.247-13.793 0.006-27.021-5.466-36.776-15.212l-367.080-367.15c-27.209-29.594-41.928-68.563-41.084-108.755s17.187-78.502 45.615-106.931c28.428-28.429 66.74-44.774 106.934-45.619s79.159 13.875 108.755 41.088l367.009 367.009c24.186 24.044 43.36 52.646 56.416 84.151s19.731 65.286 19.648 99.389c-0.077 68.809-27.443 134.779-76.096 183.434-48.659 48.655-114.63 76.022-183.437 76.096z" />
<glyph unicode="&#xe90f;" d="M1024 448c0-282.77-229.23-512-512-512s-512 229.23-512 512c0 282.77 229.23 512 512 512s512-229.23 512-512z" />
<glyph unicode="&#xe910;" d="M341.405 255.99v136l181.334 45.331-181.334 45.334v136l430.669-181.334-430.669-181.331z" />
<glyph unicode="&#xe911;" glyph-name="heart" d="M339.2 789.333c-116.64 0-211.2-97.947-211.2-218.765 0-218.764 249.6-417.642 384-463.901 134.4 46.259 384 245.137 384 463.901 0 120.818-94.558 218.765-211.2 218.765-71.424 0-134.592-36.733-172.8-92.955-19.473 28.734-45.346 52.183-75.426 68.364s-63.48 24.616-97.374 24.591z" />
<glyph unicode="&#xe912;" glyph-name="toggle" horiz-adv-x="256" d="M256 832c0-70.692-57.308-128-128-128s-128 57.308-128 128c0 70.692 57.308 128 128 128s128-57.308 128-128zM256 448c0-70.692-57.308-128-128-128s-128 57.308-128 128c0 70.692 57.308 128 128 128s128-57.308 128-128zM256 64c0-70.692-57.308-128-128-128s-128 57.308-128 128c0 70.692 57.308 128 128 128s128-57.308 128-128z" />
<glyph unicode="&#xe913;" glyph-name="star" d="M359.919 255.074l-18.637-248.747c-1.31-17.481 14.229-29.521 28.128-21.73 98.404 55.121 406.658 257.583 562.891 702.552 7.168 20.412-12.083 38.831-28.523 27.317-92.284-64.629-293.973-198.213-418.611-223.655 0 0 79.817 55.438 127.595 140.543 4.681 8.343 4.292 19.023-0.93 26.554l-174.225 251.123c-10.325 14.886-31.518 8.719-35.247-10.256l-54.24-275.994-254.586-222.196c-12.765-11.136-10.161-33.643 4.576-39.603l261.809-105.907zM810.125 353.114c-16.124-22.498-50.854-68.774-82.923-97.054-6.409-5.653-5.547-15.138 1.809-19.755l169.434-106.364c10.197-6.4 23.974 1.199 22.251 12.305-7.881 50.829-30.588 156.809-87.996 212.442-6.413 6.208-17.463 5.555-22.575-1.574z" />
<glyph unicode="&#xe914;" glyph-name="edit" horiz-adv-x="975" d="M121.905 226.128v-123.529c0-11.381 8.94-20.319 20.318-20.319h123.53c5.282 0 10.565 2.033 14.222 6.095l443.735 443.328-152.381 152.381-443.329-443.328c-4.063-4.062-6.095-8.938-6.095-14.629zM841.548 649.545c3.769 3.759 6.758 8.225 8.797 13.14s3.087 10.185 3.087 15.507c0 5.322-1.048 10.592-3.087 15.507s-5.027 9.381-8.797 13.14l-95.086 95.086c-3.76 3.767-8.221 6.755-13.136 8.795-4.92 2.039-10.186 3.089-15.511 3.089-5.32 0-10.591-1.049-15.506-3.089s-9.382-5.028-13.141-8.795l-74.362-74.362 152.381-152.381 74.362 74.362z" />
<glyph unicode="&#xe915;" glyph-name="setting" d="M596.651 851.541c3.712-7.211 4.651-16.469 6.485-34.987 3.499-34.987 5.248-52.48 12.587-62.123 4.574-5.987 10.65-10.657 17.609-13.535 6.963-2.877 14.562-3.86 22.029-2.849 11.947 1.579 25.6 12.715 52.821 34.987 14.379 11.819 21.589 17.707 29.312 20.181 9.835 3.143 20.476 2.612 29.952-1.493 7.467-3.243 14.080-9.813 27.179-22.955l38.144-38.144c13.141-13.141 19.712-19.712 22.955-27.179 4.105-9.475 4.638-20.116 1.493-29.952-2.475-7.723-8.363-14.933-20.139-29.312-22.315-27.264-33.451-40.875-35.072-52.864-0.998-7.462-0.004-15.056 2.88-22.010s7.561-13.021 13.547-17.585c9.6-7.339 27.136-9.088 62.165-12.587 18.475-1.835 27.733-2.773 34.987-6.485 9.152-4.745 16.273-12.642 20.053-22.229 3.029-7.552 3.029-16.853 3.029-35.456v-53.931c0-18.603 0-27.904-2.987-35.413-3.793-9.617-10.948-17.532-20.139-22.272-7.211-3.712-16.469-4.651-34.987-6.485-34.987-3.499-52.48-5.248-62.123-12.587-5.986-4.574-10.658-10.65-13.534-17.609-2.88-6.963-3.861-14.562-2.85-22.029 1.621-11.947 12.757-25.6 35.029-52.821 11.776-14.379 17.664-21.547 20.139-29.312 3.145-9.835 2.611-20.476-1.493-29.952-3.243-7.467-9.813-14.037-22.955-27.179l-38.144-38.101c-13.141-13.184-19.712-19.755-27.179-22.955-9.476-4.105-20.117-4.638-29.952-1.493-7.723 2.475-14.933 8.363-29.312 20.139-27.264 22.272-40.875 33.408-52.821 34.987-7.467 1.011-15.066 0.030-22.029-2.85-6.959-2.876-13.035-7.548-17.609-13.534-7.339-9.6-9.088-27.093-12.587-62.123-1.835-18.517-2.773-27.776-6.485-34.987-4.727-9.182-12.625-16.337-22.229-20.139-7.552-2.987-16.853-2.987-35.456-2.987h-53.931c-18.603 0-27.904 0-35.413 2.987-9.617 3.793-17.532 10.948-22.272 20.139-3.712 7.211-4.651 16.469-6.485 34.987-3.499 34.987-5.248 52.48-12.587 62.123-4.569 5.982-10.638 10.645-17.591 13.521-6.954 2.88-14.545 3.866-22.003 2.863-11.989-1.579-25.6-12.715-52.864-34.987-14.379-11.819-21.589-17.707-29.312-20.181-9.836-3.145-20.477-2.611-29.952 1.493-7.467 3.243-14.080 9.813-27.179 22.955l-38.144 38.144c-13.141 13.141-19.712 19.712-22.955 27.179-4.106 9.476-4.636 20.117-1.493 29.952 2.475 7.723 8.363 14.933 20.139 29.312 22.315 27.264 33.451 40.875 35.029 52.864 1.004 7.458 0.017 15.049-2.861 22.003s-7.543 13.022-13.523 17.591c-9.6 7.339-27.136 9.088-62.165 12.587-18.475 1.835-27.733 2.773-34.987 6.485-9.15 4.745-16.273 12.642-20.053 22.229-3.029 7.552-3.029 16.853-3.029 35.456v53.931c0 18.603 0 27.904 2.987 35.413 3.793 9.617 10.949 17.532 20.139 22.272 7.211 3.712 16.469 4.651 34.987 6.485 34.987 3.499 52.523 5.248 62.123 12.587 5.988 4.564 10.662 10.63 13.547 17.585s3.879 14.548 2.88 22.010c-1.621 11.989-12.8 25.6-35.072 52.907-11.776 14.379-17.664 21.547-20.139 29.312-3.143 9.836-2.612 20.477 1.493 29.952 3.243 7.424 9.813 14.037 22.955 27.179l38.144 38.101c13.141 13.141 19.712 19.755 27.179 22.955 9.475 4.106 20.116 4.636 29.952 1.493 7.723-2.475 14.933-8.363 29.312-20.139 27.264-22.272 40.875-33.408 52.821-35.029 7.476-1.015 15.087-0.029 22.057 2.857s13.051 7.568 17.623 13.57c7.253 9.6 9.045 27.093 12.544 62.123 1.835 18.475 2.773 27.733 6.485 34.987 4.736 9.166 12.634 16.305 22.229 20.096 7.552 2.987 16.853 2.987 35.456 2.987h53.931c18.603 0 27.904 0 35.413-2.987 9.617-3.793 17.532-10.949 22.272-20.139zM512 277.333c45.265 0 88.674 17.98 120.678 49.988 32.009 32.004 49.988 75.413 49.988 120.678s-17.98 88.673-49.988 120.68c-32.004 32.006-75.413 49.987-120.678 49.987s-88.673-17.981-120.68-49.987c-32.006-32.006-49.987-75.415-49.987-120.68s17.981-88.674 49.987-120.678c32.006-32.009 75.415-49.988 120.68-49.988z" />
<glyph unicode="&#xe916;" glyph-name="block" d="M128 448c0 101.843 40.457 199.515 112.471 271.529s169.686 112.471 271.529 112.471c101.841 0 199.514-40.457 271.531-112.471 72.013-72.014 112.469-169.686 112.469-271.529 0-101.841-40.457-199.514-112.469-271.531-72.017-72.013-169.69-112.469-271.531-112.469-101.843 0-199.515 40.457-271.529 112.469-72.014 72.017-112.471 169.69-112.471 271.531zM754.688 636.16l-431.232-430.464c59.087-45.909 132.898-68.672 207.578-64.021s145.097 36.399 198.029 89.284c52.932 52.885 84.745 123.273 89.463 197.952 4.715 74.675-17.984 148.506-63.838 207.633v-0.384zM700.544 690.688c-59.093 46.211-133.047 69.202-207.927 64.64-74.874-4.563-145.493-36.365-198.537-89.408s-84.845-123.663-89.408-198.537c-4.562-74.88 18.429-148.834 64.64-207.927l431.232 431.232z" />
<glyph unicode="&#xe917;" glyph-name="notification" d="M640.004 149.333c0.009-21.53-8.124-42.266-22.763-58.048-14.639-15.787-34.705-25.459-56.171-27.072l-6.4-0.213h-85.333c-21.53-0.009-42.266 8.124-58.051 22.763s-25.455 34.701-27.070 56.171l-0.213 6.4h256zM512.004 874.667c77.44 0.001 151.851-30.075 207.539-83.886s88.303-127.148 90.957-204.541l0.171-10.24v-160.597l77.739-155.477c3.392-6.784 5.090-14.289 4.949-21.871-0.145-7.586-2.121-15.023-5.769-21.675-3.644-6.652-8.845-12.322-15.159-16.521-6.315-4.203-13.555-6.81-21.099-7.603l-4.907-0.256h-668.843c-7.587-0.004-15.063 1.835-21.785 5.355s-12.49 8.619-16.811 14.852c-4.32 6.238-7.064 13.431-7.996 20.962s-0.024 15.172 2.645 22.276l1.963 4.48 77.739 155.477v160.597c0 79.212 31.467 155.178 87.478 211.189s131.979 87.477 211.189 87.477z" />
<glyph unicode="&#xe918;" glyph-name="magnify" d="M944.358-64l-358.403 358.4c-28.445-22.758-61.156-40.768-98.134-54.042-36.978-13.28-76.326-19.917-118.044-19.917-103.348 0-190.806 35.808-262.372 107.409-71.566 71.604-107.368 159.061-107.406 262.371 0 103.348 35.802 190.806 107.406 262.372s159.062 107.368 262.372 107.406c103.348 0 190.805-35.802 262.371-107.406 71.569-71.604 107.371-159.062 107.409-262.372 0-41.718-6.637-81.066-19.917-118.044-13.274-36.978-31.283-69.689-54.042-98.134l358.4-358.403-79.642-79.642zM369.778 334.222c71.111 0 131.565 24.899 181.362 74.695s74.676 110.232 74.638 181.305c0 71.111-24.899 131.565-74.695 181.362s-110.232 74.676-181.305 74.638c-71.111 0-131.565-24.899-181.362-74.695s-74.676-110.232-74.638-181.305c0-71.111 24.899-131.565 74.695-181.362s110.232-74.676 181.305-74.638z" />
<glyph unicode="&#xe919;" glyph-name="logout" horiz-adv-x="979" d="M489.739-9.804c-245.894 0-445.217 199.324-445.217 445.217s199.324 445.217 445.217 445.217c245.894 0 445.217-199.324 445.217-445.217s-199.324-445.217-445.217-445.217zM712.348 257.327l222.609 178.087-222.609 178.087v-133.565h-356.174v-89.043h356.174v-133.565z" />
<glyph unicode="&#xe91a;" glyph-name="envelope" horiz-adv-x="975" d="M0 531.738v-390.095c0-25.863 10.275-50.673 28.564-68.959 18.289-18.291 43.095-28.565 68.96-28.565h780.19c25.863 0 50.668 10.274 68.959 28.565 18.291 18.286 28.565 43.096 28.565 68.959v390.095l-487.619-195.047-487.619 195.047zM97.524 824.31c-25.865 0-50.67-10.275-68.96-28.564s-28.564-43.095-28.564-68.96v-97.524l487.619-195.047 487.619 195.047v97.524c0 25.865-10.274 50.67-28.565 68.96s-43.096 28.564-68.959 28.564h-780.19z" />
<glyph unicode="&#xe91b;" glyph-name="file" horiz-adv-x="979" d="M170.266 795.691c47.791 47.831 124.761 47.831 278.66 47.831h81.626c153.898 0 230.867 0 278.662-47.831 47.83-47.791 47.83-124.761 47.83-278.662v-163.246c0-153.903 0-230.872-47.83-278.662-47.794-47.83-124.763-47.83-278.662-47.83h-81.626c-153.899 0-230.87 0-278.66 47.83-47.831 47.79-47.831 124.759-47.831 278.662v163.246c0 153.901 0 230.871 47.831 278.662zM326.493 547.638c-8.118 0-15.903-3.225-21.643-8.965s-8.965-13.526-8.965-21.643c0-8.119 3.225-15.901 8.965-21.645 5.74-5.739 13.526-8.962 21.643-8.962h326.494c8.116 0 15.903 3.223 21.642 8.962 5.739 5.743 8.967 13.526 8.967 21.645s-3.228 15.903-8.967 21.643-13.526 8.965-21.642 8.965h-326.494zM326.493 384.392c-8.118 0-15.903-3.223-21.643-8.967-5.74-5.739-8.965-13.526-8.965-21.642s3.225-15.903 8.965-21.642c5.74-5.743 13.526-8.967 21.643-8.967h204.060c8.116 0 15.903 3.223 21.642 8.967 5.739 5.739 8.967 13.526 8.967 21.642s-3.228 15.903-8.967 21.642c-5.739 5.743-13.526 8.967-21.642 8.967h-204.060z" />
<glyph unicode="&#xe91c;" glyph-name="shop" horiz-adv-x="975" d="M952.891 685.243l-102.702 164.124c-9.143 14.657-25.454 23.705-42.842 23.705h-639.526c-17.386 0-33.697-9.048-42.838-23.705l-102.884-164.124c-53.055-84.686-6.094-202.486 93.025-216.056 7.169-0.907 14.518-1.448 21.688-1.448 46.782 0 88.365 20.628 116.864 52.476 28.499-31.848 70.083-52.476 116.864-52.476s88.365 20.628 116.865 52.476c28.501-31.848 70.080-52.476 116.862-52.476 46.963 0 88.366 20.628 116.868 52.476 28.677-31.848 70.081-52.476 116.863-52.476 7.348 0 14.516 0.541 21.689 1.448 99.474 13.389 146.617 131.189 93.384 216.056h-0.18zM867.035 411.824h-0.18c-9.499-1.268-19.178-1.989-29.038-1.989-22.226 0-43.554 3.438-63.449 9.591v-241.211h-573.568v241.391c-20.075-6.334-41.584-9.772-63.809-9.772-9.858 0-19.716 0.722-29.216 1.989h-0.179c-7.349 1.087-14.519 2.35-21.509 4.164v-353.582c0-63.878 51.442-115.81 114.713-115.81h573.568c63.269 0 114.712 51.931 114.712 115.81v353.582c-7.168-1.814-14.341-3.257-22.045-4.164z" />
<glyph unicode="&#xe91d;" glyph-name="message" horiz-adv-x="1062" d="M331.052-52.281c6.303-2.215 12.924-3.387 19.604-3.478 9.221 0.353 18.261 2.662 26.519 6.777 8.259 4.119 15.544 9.948 21.374 17.101 12.193 13.1 24.568 25.873 36.959 38.665 2.799 2.89 5.602 5.78 8.401 8.674l2.594 2.693c28.388 29.431 57.632 59.749 84.78 91.151 8.841 13.001 20.556 23.791 34.24 31.535 13.68 7.748 28.964 12.239 44.662 13.126 5.685-0.030 11.359-0.539 16.96-1.528 7.377-1.172 14.84-1.733 22.312-1.669 7.509 0 15.121 0.417 22.627 0.869l7.229 0.417c53.157 1.707 105.119 16.183 151.506 42.193 74.79 43.569 133.401 110.262 166.995 190.032s40.353 168.296 19.263 252.245c-15.299 75.493-54.056 144.224-110.736 196.385-56.677 52.161-128.387 85.085-204.887 94.074-23.233 2.534-46.596 3.694-69.966 3.475-18.936 0-38.169-0.562-56.794-1.106l-1.354-0.040c-14.666-0.452-29.715-0.904-44.624-1.078v1.53h-13.058c-16.79 0-33.477 0-50.305 0.242-16.926 0.243-33.887 0.244-50.813 0.244-24.193 0-44.21-0.244-62.979-0.8-81.118-1.321-158.899-32.519-218.445-87.621-50.593-44.805-88.962-101.74-111.501-165.451s-28.505-132.108-17.34-198.763c9.526-74.297 41.015-144.062 90.434-200.351 49.419-56.293 114.516-96.552 186.956-115.617 10.323-2.606 11.296-4.934 11.296-13.729-0.174-38.719-0.277-89.74 0.87-141.873-1.233-12.489 1.767-25.027 8.517-35.605s16.861-18.576 28.706-22.718zM203.949 754.032c41.581 40.761 97.622 63.382 155.848 62.909l11.33 0.104c27.873 0 55.437-0.206 83.271-0.413l0.315-0.002c27.948-0.209 56.032-0.418 83.835-0.418 42.265 0 77.054 0.522 109.481 1.6h9.489c52.383-0.026 103.47-16.276 146.239-46.517s75.124-72.988 92.608-122.365c24.295-61.88 26.863-130.175 7.289-193.704s-60.132-118.534-115.033-156.016c-34.88-22.236-75.279-34.274-116.641-34.755-19.915-0.315-39.868-0.558-59.817-0.558-16.577 0-33.159 0.14-49.736 0.558h-2.363c-11.124 0.152-22.149-2.116-32.309-6.648s-19.213-11.218-26.537-19.593c-25.96-27.978-52.933-55.96-79.034-82.997l-14.355-14.878c-0.174 15.607-0.243 30.656 0 45.705 1.635 10.058 1.024 20.347-1.786 30.14-2.807 9.792-7.744 18.842-14.461 26.499-6.717 7.661-15.043 13.741-24.383 17.802-9.341 4.066-19.464 6.015-29.646 5.708-52.641 5.886-102.014 28.475-140.886 64.455-38.872 35.984-65.2 83.471-75.126 135.502-14.241 50.912-14.078 104.774 0.471 155.601s42.914 96.619 81.938 132.284z" />
<glyph unicode="&#xe91e;" glyph-name="books" horiz-adv-x="819" d="M112.239-55.075c-76.526 0-112.199 35.906-112.199 112.968v474.37c0 87.036 0 174.071 0 261.106 0 89.264 45.637 134.531 135.402 134.531h468.652c33.432-0.602 55.23-18.221 55.296-44.9 0.16-5.456-0.782-10.888-2.769-15.972s-4.981-9.716-8.798-13.616c-6.017-5.236-13.013-9.223-20.582-11.731s-15.565-3.488-23.515-2.879c-127.98 0-472.13 0-472.13 0-7.591 0.403-15.195-0.467-22.499-2.573-5.842-1.734-10.812-5.614-13.912-10.86s-4.102-11.47-2.804-17.424c0.61-5.334 3.056-10.291 6.916-14.023s8.895-6.008 14.247-6.438c3.197-0.36 6.414-0.515 9.629-0.467h10.029c3.343 0 444.445 0 554.972 0 14.635 1.905 29.508 0.438 43.483-4.289 13.98-4.728 26.69-12.591 37.159-22.987s18.424-23.050 23.249-36.993c4.829-13.943 6.398-28.807 4.6-43.451 0.176-208.482 0.176-416.952 0-625.414 0-72.212-36.778-108.855-109.56-108.855l-574.865-0.102zM91.646 700.16c0.29-87.971 0.344-175.933 0.165-263.882v-379.519c-0.386-7.213 0.131-14.447 1.539-21.533 7.080-1.049 14.246-1.417 21.397-1.102h565.672c7.832-0.471 15.696 0.033 23.4 1.503 0.926 7.328 1.241 14.721 0.938 22.098 0 179.913 0 359.834 0 539.765v76.659c0.451 7.576-0.045 15.179-1.47 22.634-7.504 0.952-15.077 1.275-22.634 0.969h-255.156c-99.136 0-198.316 0-297.543 0h-12.537c-7.985-0.133-15.957 0.71-23.738 2.508l-0.033-0.1zM112.229-42.402c-69.739 0-99.529 30.085-99.529 100.295v474.37c0 87.056 0 174.091 0 261.104 0 82.009 40.119 121.893 122.73 121.893h468.554c26.743-0.468 42.693-12.537 42.758-32.295 0.152-3.789-0.467-7.568-1.823-11.109s-3.424-6.767-6.066-9.484c-9.839-8.108-22.475-12.013-35.172-10.866-127.98 0-466.21 0-466.21 0h-5.885c-9.041 0.43-18.089-0.7-26.746-3.343-8.552-2.69-15.827-8.412-20.456-16.089s-6.296-16.781-4.685-25.6c0.961-8.144 4.677-15.716 10.533-21.456s13.5-9.307 21.662-10.105c3.719-0.407 7.458-0.585 11.198-0.535h10.032c0 0 443.945 0 554.975 0 64.422 0 95.748-31.126 95.818-95.048 0.201-208.481 0.201-416.943 0-625.381 0-65.63-30.826-96.186-96.956-96.219l-574.731-0.131zM82.709 715.303c-0.718 0.058-1.439-0.093-2.073-0.435-1.705-1.705-1.671-10.030-1.671-13.039 0.312-88.506 0.378-177.022 0.2-265.553v-379.519c0-33.669 1.672-35.308 35.605-35.308h565.772c35.873 0 36.778 1.036 36.778 36.274 0 179.909 0 359.83 0 539.762v76.728c0 35.237-1.040 36.239-36.778 36.273h-212.46c-113.315 0-226.639 0-339.974 0h-12.637c-8.19-0.276-16.372 0.751-24.239 3.043-2.735 1.022-5.608 1.62-8.523 1.773zM112.199-48.755c-73.216 0-105.879 32.899-105.879 106.615v491.688c0 81.261 0 162.536 0 243.821 0 85.051 43.463 128.211 129.082 128.211h468.618c36.041-0.635 48.943-20.36 49.013-38.58 0.139-4.618-0.651-9.216-2.322-13.523s-4.19-8.236-7.41-11.552c-5.439-4.626-11.739-8.131-18.538-10.317-6.795-2.186-13.959-3.009-21.078-2.42-135.266 0-466.211 0-466.211 0h-6.050c-8.286 0.434-16.585-0.549-24.54-2.908-7.196-2.213-13.32-7.008-17.196-13.464s-5.229-14.115-3.799-21.507c0.818-6.738 3.917-12.992 8.783-17.724s11.205-7.656 17.963-8.287c3.474-0.382 6.969-0.55 10.464-0.502h204.272c120.245 0 240.466 0 360.663 0 67.736 0 102.068-34.134 102.138-101.366 0.176-208.461 0.176-416.923 0-625.381 0-68.973-33.833-102.506-103.24-102.539l-574.733-0.266zM85.454 708.552c0-1.504-0.167-3.645 0-6.687 0.29-88.528 0.346-177.045 0.168-265.551 0 0 0-305.037 0-379.523 0-28.951-0.001-28.955 29.286-28.955h565.774c30.556 0 30.556 0.004 30.556 30.093v616.219c0 30.089 0 30.090-30.458 30.090h-192.233c-120.111 0-240.232 0-360.365 0h-12.705c-8.86-0.303-17.711 0.825-26.211 3.343-1.253 0.389-2.525 0.714-3.812 0.971zM19.022 427.831c0 121.848 0 243.698 0 365.547 0 78.599 37.379 115.542 116.413 115.542h455.212c4.411 0 8.794 0 13.373 0 23.4-0.401 36.471-9.797 36.54-25.978 0.066-16.181-12.272-25.107-36.774-25.107-184.984 0-281.233 0-466.214 0-11.736 0.831-23.527-0.403-34.836-3.644-9.881-3.189-18.283-9.83-23.668-18.708s-7.392-19.398-5.652-29.635c1.145-9.549 5.502-18.425 12.354-25.174s15.793-10.97 25.358-11.97c7.315-0.624 14.662-0.802 21.999-0.535 184.991 0 369.981 0 554.972 0 60.948 0 89.399-28.016 89.465-88.728 0.201-208.463 0.201-416.92 0-625.382 0-62.185-28.148-89.833-90.534-89.866-191.676 0-383.254 0-574.731 0-66.196 0-93.21 27.349-93.21 93.979-0.089 123.118-0.112 246.338-0.067 369.66zM72.782 376.013c0-106.406 0-212.812 0-319.214 0-37.11 4.58-41.624 41.957-41.656 188.602 0 377.194 0 565.774 0 39.182 0 43.225 3.944 43.225 42.594 0 205.472 0 410.948 0 616.421 0 38.614-3.944 42.593-43.127 42.627-184.189 0-368.389 0-552.6 0-11.688-0.954-23.452-0.075-34.869 2.608-19.223 6.452-20.629-2.273-20.595-17.685 0.435-108.487 0.301-217.11 0.235-325.695zM334.495 460.923c-14.153 0-28.317 0.078-42.492 0.233-40.119 0.5-54.695 23.871-54.762 45.535s14.208 45.632 54.695 45.867c36.196 0.2 72.381 0.302 108.554 0.302 35.059 0 70.117-0.102 105.178-0.302 7.897 0.461 15.802-0.731 23.212-3.502 7.406-2.769 14.156-7.049 19.812-12.579 3.924-4.305 6.894-9.388 8.712-14.918 1.823-5.534 2.454-11.387 1.855-17.179-1.237-15.88-9.798-42.66-53.293-43.16-15.245-0.168-30.454-0.233-45.699-0.233l-125.773-0.066zM334.524 473.592c-14.108 0-28.216 0-42.325 0.233-38.012 0.467-42.226 23.2-42.259 32.932-0.034 9.728 3.979 32.928 42.092 33.161 36.151 0.201 72.301 0.303 108.453 0.303 35.038 0 70.076-0.090 105.113-0.27 6.148 0.426 12.321-0.418 18.133-2.482 5.808-2.068 11.129-5.308 15.634-9.519 2.728-3.027 4.784-6.595 6.042-10.473 1.253-3.875 1.679-7.975 1.245-12.026-0.467-4.805-1.909-9.466-4.243-13.693s-5.513-7.93-9.335-10.879c-3.822-2.953-8.208-5.091-12.89-6.279-4.678-1.192-9.552-1.409-14.32-0.643-15.18-0.201-30.392-0.233-45.568-0.233h-62.419l-63.353-0.131zM334.862 467.272c-14.22 0-28.44 0.070-42.659 0.201-44.866 0.602-48.478 30.089-48.512 39.252-0.034 9.159 3.344 39.281 48.377 39.514 36.419 0.201 72.838 0.303 109.257 0.303 34.793 0 69.585-0.102 104.376-0.303 7.016 0.442 14.049-0.573 20.656-2.982 6.607-2.413 12.64-6.164 17.723-11.026 3.326-3.662 5.845-7.983 7.385-12.685 1.544-4.698 2.081-9.671 1.577-14.594-1.307-16.716-10.535-36.774-47.043-37.376-14.954-0.156-29.909-0.225-44.863-0.201l-126.274-0.102zM397.842 480.010c-35.204 0-70.443-0.336-105.647 0-23.737 0.299-35.938 9.826-36.005 26.743s12.001 26.747 35.805 26.747c71.166 0.401 142.32 0.401 213.463 0 23.204 0 36.106-10.801 34.804-27.652-1.671-21.193-17.318-25.436-34.57-25.674-35.938-0.434-71.909 0-107.85 0v-0.164zM295.578 320.070c-4.771-0.057-9.54 0.213-14.276 0.799-5.814-0.029-11.578 1.098-16.95 3.322s-10.248 5.501-14.339 9.63c-4.091 4.133-7.316 9.040-9.487 14.434s-3.244 11.166-3.155 16.982c-0.233 6.169 0.825 12.321 3.106 18.059s5.736 10.94 10.141 15.266c4.406 4.325 9.666 7.688 15.445 9.863 5.779 2.179 11.948 3.125 18.114 2.781 17.218 0.7 34.2 0.766 47.038 0.766h162.848c9.626 1.073 19.37 0.213 28.66-2.531s17.936-7.32 25.436-13.447c3.867-4.108 6.861-8.958 8.798-14.258 1.937-5.296 2.777-10.932 2.466-16.568-0.971-44.863-50.147-44.966-66.429-44.999l-197.417-0.098zM295.543 332.78c-4.201-0.057-8.403 0.176-12.572 0.7-21.697 2.974-32.797 13.705-32.997 31.961-0.21 4.542 0.557 9.081 2.249 13.304 1.691 4.219 4.268 8.032 7.556 11.178 3.289 3.142 7.212 5.542 11.507 7.041s8.862 2.056 13.392 1.642c16.716 0.635 32.896 0.733 46.537 0.733h162.817c16.024 1.962 32.178-2.404 45.031-12.169 2.695-2.9 4.764-6.32 6.078-10.056 1.319-3.731 1.855-7.692 1.577-11.641-0.635-28.619-27.546-32.563-53.793-32.596l-197.382-0.098zM365.55 326.357l-2.14 12.669v-12.669h-67.599c-4.569-0.061-9.137 0.184-13.674 0.733-33.131 4.547-38.347 25.846-38.48 38.15-0.237 5.362 0.666 10.715 2.648 15.708 1.982 4.989 5 9.503 8.854 13.242s8.455 6.619 13.502 8.454c5.048 1.831 10.426 2.572 15.781 2.175 16.716 0.668 33.434 0.77 47.141 0.77h80.334c27.394 0 54.776 0 82.145 0 8.778 1.073 17.682 0.381 26.19-2.032 8.507-2.408 16.445-6.492 23.355-12.009 3.293-3.506 5.833-7.647 7.463-12.173 1.626-4.526 2.306-9.339 1.999-14.135-0.836-38.65-43.897-38.752-60.178-38.785l-127.342-0.098zM396.106 339.038c-31.538 0-63.087 0-94.647 0-5.895-0.123-11.793 0.143-17.653 0.803-15.111 2.073-27.314 8.323-27.514 25.743-0.201 18.62 12.537 26.145 28.618 26.743 28.585 1.139 57.201 0.639 85.819 0.672 41.098 0 82.19 0 123.264 0 33.067 0 46.805-8.258 46.338-27.415s-13.84-26.313-47.473-26.378c-32.231-0.18-64.479-0.233-96.753-0.168z" />
</font>
</defs>
</svg>
